<svg version="1.1" id="Layer_1" xmlns="http://www.w3.org/2000/svg" xmlns:xlink="http://www.w3.org/1999/xlink" x="0px" y="0px"
	 width="100%" viewBox="0 0 296 158" enable-background="new 0 0 296 158" xml:space="preserve">

<path fill="#E2E5E8" opacity="1.000000" stroke="none" 
	d="
M105.361511,134.223480 
	C105.343834,134.868103 105.326157,135.512741 105.125427,136.918655 
	C104.902802,140.507782 104.883690,143.336075 104.819618,146.163361 
	C104.657814,153.302567 100.586014,156.299744 93.685471,154.548370 
	C84.521187,152.222488 75.312309,150.072418 66.146812,147.751175 
	C52.287704,144.241211 38.592552,140.469971 27.877291,130.016663 
	C7.871981,110.500397 1.552929,87.153717 8.751049,60.391769 
	C10.827445,52.671921 14.904245,45.490116 18.063931,38.061638 
	C18.063931,38.061638 18.313889,37.734337 18.735542,37.510891 
	C21.927507,34.103016 24.697821,30.918591 27.468132,27.734161 
	C28.441990,26.915138 29.415848,26.096115 31.010422,25.148968 
	C35.884983,22.479183 40.043407,19.756611 44.420208,17.448069 
	C48.580593,15.253672 52.969280,13.492118 57.257584,11.540244 
	C57.649120,11.465818 58.040661,11.391392 59.030060,11.488087 
	C63.178516,10.988279 66.729118,10.317350 70.279716,9.646421 
	C72.479225,9.621701 74.678741,9.596980 77.485886,9.905252 
	C82.056786,10.584715 86.020058,10.931185 89.983322,11.277655 
	C90.370033,11.325928 90.756752,11.374201 91.535782,11.824226 
	C92.302399,12.546869 92.628296,13.045980 93.058044,13.162683 
	C104.965767,16.396376 114.848557,22.979425 123.665192,31.412445 
	C124.418610,32.133080 125.841057,32.154259 126.952705,32.500362 
	C135.993195,32.400253 145.033691,32.300148 154.741516,32.386139 
	C156.269638,32.453007 157.130447,32.333771 157.991257,32.214535 
	C163.364975,32.320160 168.738678,32.425781 174.835312,32.714287 
	C178.105026,30.700968 180.651840,28.504766 183.198639,26.308567 
	C183.198639,26.308565 183.225586,26.230171 183.562439,26.228081 
	C184.356339,25.640024 184.813385,25.054058 185.270416,24.468092 
	C185.270416,24.468092 185.496414,24.102470 186.013702,24.020567 
	C193.833710,20.441263 201.146210,16.963882 208.422302,13.411964 
	C209.069260,13.096147 209.479507,12.295436 209.999710,11.719929 
	C210.348862,11.616572 210.697998,11.513213 211.759430,11.563385 
	C216.739365,11.022230 221.007019,10.327544 225.274673,9.632859 
	C227.151901,9.599671 229.029129,9.566483 231.516693,9.869135 
	C237.603516,11.382809 243.162888,12.268270 248.541153,13.792644 
	C265.482483,18.594337 277.989227,29.305075 286.858704,44.185364 
	C289.765472,49.062061 291.279449,54.780308 293.326385,60.153313 
	C294.322876,62.769005 294.929413,63.369293 297.000000,63.000000 
	C297.000000,63.444447 297.000000,63.888889 296.741699,64.285194 
	C294.254639,65.821007 293.926056,67.144081 297.000000,68.000000 
	C297.000000,76.687561 297.000000,85.375130 296.729065,94.193771 
	C295.687958,95.334969 294.647125,96.237053 294.193542,97.373535 
	C292.008301,102.848709 289.981354,108.387070 287.898224,113.903015 
	C287.898224,113.903008 287.709839,114.284958 287.337402,114.588486 
	C285.199097,117.799744 283.433228,120.707474 281.667358,123.615204 
	C281.086945,124.230621 280.506531,124.846031 279.487915,125.667038 
	C278.964020,126.164749 278.878296,126.456856 278.792542,126.748962 
	C277.242523,128.252609 275.692535,129.756271 273.589569,131.406952 
	C272.543640,132.130478 272.050690,132.706970 271.557739,133.283463 
	C271.169586,133.623917 270.781433,133.964371 269.954773,134.256119 
	C269.037811,134.837479 268.559387,135.467560 268.080963,136.097626 
	C268.080963,136.097626 267.812683,136.399200 267.284485,136.328186 
	C262.917114,138.155151 259.258698,140.694077 255.206543,141.836884 
	C240.063385,146.107620 224.729980,149.706818 209.603821,154.032974 
	C204.893906,155.380020 201.279617,154.696152 197.777313,151.685013 
	C197.491791,146.804230 196.970444,141.921783 197.004868,137.043259 
	C197.027267,133.866837 196.142334,132.368530 192.233185,132.603577 
	C190.751816,132.497467 189.884735,132.651291 189.017654,132.805130 
	C186.304871,132.829803 183.592072,132.854477 180.302490,132.624420 
	C179.156311,132.512802 178.586899,132.655930 178.017502,132.799057 
	C176.345596,132.789627 174.673676,132.780212 172.495804,132.358582 
	C168.511215,129.599182 164.788696,127.530426 161.657013,124.787186 
	C160.094864,123.418823 159.613647,120.816490 158.643494,118.772324 
	C158.643494,113.543190 158.643494,108.314056 158.643494,102.459221 
	C154.024948,102.459221 149.974976,102.300430 145.958450,102.596252 
	C145.176697,102.653839 144.525162,104.479950 143.771942,105.987320 
	C143.730347,106.484337 143.751282,106.523018 143.751282,106.523018 
	C143.247086,111.744225 142.742874,116.965431 142.005722,122.881958 
	C137.944351,130.119263 131.969574,132.427383 124.710999,132.329895 
	C119.440041,132.259094 114.162926,132.204041 108.898735,132.406448 
	C107.698143,132.452606 106.539474,133.588913 105.361511,134.223480 
M266.139191,40.859932 
	C266.139191,40.859932 266.149933,40.788372 266.155823,40.151108 
	C265.481354,39.736477 264.806915,39.321846 263.599884,38.568478 
	C262.813416,37.875660 262.026978,37.182842 261.177032,35.822502 
	C253.568344,28.821360 244.400101,25.365324 234.280548,24.403864 
	C215.166794,22.587860 199.423660,29.619322 186.555847,43.426975 
	C183.643417,46.552128 180.510071,47.441601 176.430573,47.419353 
	C170.538818,47.387222 164.643494,48.008190 157.864288,48.514767 
	C152.992950,48.443760 148.121597,48.372749 142.739944,47.761806 
	C137.438751,47.611576 132.117462,47.110283 126.842148,47.412186 
	C121.804390,47.700493 118.234673,46.163414 114.652489,42.465988 
	C99.079079,26.391600 80.274170,20.341375 58.406334,26.399471 
	C51.065517,28.433113 43.621273,31.053230 39.011589,38.140388 
	C39.011589,38.140388 39.160439,38.190483 38.480988,38.057297 
	C37.633919,39.014179 36.786850,39.971062 35.996532,40.991562 
	C35.996532,40.991562 35.928352,40.940956 35.233223,40.916050 
	C34.205994,42.331551 33.178768,43.747051 31.863871,45.636887 
	C31.472885,46.029057 31.081898,46.421223 30.007875,46.897305 
	C27.510723,52.731129 25.013571,58.564949 22.489687,64.937988 
	C22.419527,65.290558 22.349367,65.643127 21.573084,66.324600 
	C21.256605,69.875206 20.940126,73.425804 20.614033,77.858086 
	C20.654070,79.912743 20.694107,81.967392 20.267838,84.588326 
	C20.970907,87.148209 21.673977,89.708092 22.523951,92.846642 
	C22.569029,93.241768 22.614107,93.636894 22.237656,94.540161 
	C24.413555,101.491150 26.667604,108.398331 33.030602,113.410278 
	C33.030602,113.410278 33.296741,113.712234 33.176311,114.408913 
	C35.390785,116.813377 37.362991,119.512054 39.862534,121.570351 
	C49.619347,129.604843 61.597652,132.271912 73.519836,134.952744 
	C76.297226,135.577271 79.156914,135.835800 82.668594,136.353638 
	C83.352928,136.477737 84.037270,136.601837 85.026657,137.302490 
	C89.238945,139.396500 89.415047,139.335205 89.643761,134.796860 
	C89.643761,129.070862 89.643761,123.344864 89.643761,117.142685 
	C102.854927,117.142685 115.230789,117.142685 128.128876,117.142685 
	C128.128876,106.764450 128.128876,96.878357 128.128876,86.713417 
	C143.543137,86.713417 158.425186,86.713417 173.282593,87.688416 
	C173.280731,95.972145 173.199417,104.257309 173.348679,112.538315 
	C173.376251,114.068649 174.335526,115.582191 175.814514,117.204727 
	C187.883057,117.204727 199.951584,117.204727 212.604538,117.204727 
	C212.604538,123.850258 212.604538,129.943039 212.229370,136.502945 
	C213.750122,140.568985 215.517624,138.679504 217.871521,136.593719 
	C218.267441,136.568359 218.663376,136.542999 219.655853,136.875870 
	C221.771439,136.144730 223.887024,135.413589 226.520859,134.557724 
	C226.872726,134.509598 227.224579,134.461456 228.311646,134.791306 
	C230.208771,134.110016 232.105911,133.428726 234.536316,132.627701 
	C234.898773,132.594025 235.261246,132.560364 236.401672,132.868134 
	C239.113312,132.216705 242.040649,132.010468 244.492340,130.822556 
	C249.846893,128.228149 254.959671,125.134789 260.162598,122.172752 
	C260.162598,122.172752 260.235626,122.172302 260.877014,122.240776 
	C261.689484,121.380585 262.501923,120.520393 263.688446,119.342659 
	C263.688446,119.342659 264.099274,119.074425 264.755219,119.103210 
	C265.188354,118.424149 265.621490,117.745094 266.002014,117.009285 
	C266.002014,117.009285 266.065521,117.052498 266.750153,117.025795 
	C267.437164,115.961876 268.124146,114.897964 268.956085,113.955513 
	C268.956085,113.955513 268.834625,113.810547 269.524414,113.893242 
	C271.486786,111.260025 273.920624,108.853691 275.318542,105.948830 
	C278.786835,98.741623 283.069427,91.650780 281.518799,82.286133 
	C281.513397,79.983154 281.507996,77.680176 281.901337,74.523514 
	C281.243103,70.301407 281.227448,65.843910 279.785797,61.908813 
	C277.208801,54.874622 275.082428,47.339493 268.036041,42.948807 
	C268.036041,42.948807 268.101227,42.872314 268.173859,42.225513 
	C267.519470,41.766663 266.865112,41.307808 266.139191,40.859932 
z"/>
<path fill="#828284" opacity="1.000000" stroke="none" 
	d="
M297.000000,62.600006 
	C294.929413,63.369293 294.322876,62.769005 293.326385,60.153313 
	C291.279449,54.780308 289.765472,49.062061 286.858704,44.185364 
	C277.989227,29.305075 265.482483,18.594337 248.541153,13.792644 
	C243.162888,12.268270 237.603516,11.382809 231.916534,9.917916 
	C242.552460,8.079748 252.074524,12.176159 261.187988,17.097488 
	C277.347656,25.823799 288.644867,38.814091 294.156342,56.565903 
	C294.507568,57.697258 295.598907,58.598831 296.672974,59.303650 
	C297.000000,60.066669 297.000000,61.133339 297.000000,62.600006 
z"/>
<path fill="#68686B" opacity="1.000000" stroke="none" 
	d="
M288.244995,113.863297 
	C289.981354,108.387070 292.008301,102.848709 294.193542,97.373535 
	C294.647125,96.237053 295.687958,95.334969 296.729065,94.662430 
	C297.000000,95.750000 297.000000,96.500000 297.000000,97.625000 
	C296.314850,98.786507 295.424988,99.472130 294.979156,100.376595 
	C292.785339,104.827034 290.709381,109.335556 288.244995,113.863297 
z"/>
<path fill="#828284" opacity="1.000000" stroke="none" 
	d="
M297.000000,67.625000 
	C293.926056,67.144081 294.254639,65.821007 296.741699,64.618530 
	C297.000000,65.750000 297.000000,66.500000 297.000000,67.625000 
z"/>
<path fill="#6A6B6C" opacity="1.000000" stroke="none" 
	d="
M17.716391,38.061470 
	C14.904245,45.490116 10.827445,52.671921 8.751049,60.391769 
	C1.552929,87.153717 7.871981,110.500397 27.877291,130.016663 
	C38.592552,140.469971 52.287704,144.241211 66.146812,147.751175 
	C75.312309,150.072418 84.521187,152.222488 93.685471,154.548370 
	C100.586014,156.299744 104.657814,153.302567 104.819618,146.163361 
	C104.883690,143.336075 104.902802,140.507782 105.134071,137.241089 
	C105.470276,141.780670 106.268074,146.855545 105.551720,151.706848 
	C104.983101,155.557663 101.115440,157.182419 97.361076,156.587189 
	C90.988892,155.576965 84.654861,154.205917 78.396896,152.622528 
	C68.160957,150.032669 57.765442,147.802444 47.855785,144.252228 
	C28.993277,137.494583 15.897645,123.876793 8.989538,105.470314 
	C0.153596,81.927177 2.434261,59.020870 17.716391,38.061470 
z"/>
<path fill="#8B8C8D" opacity="1.000000" stroke="none" 
	d="
M197.649689,152.009079 
	C201.279617,154.696152 204.893906,155.380020 209.603821,154.032974 
	C224.729980,149.706818 240.063385,146.107620 255.206543,141.836884 
	C259.258698,140.694077 262.917114,138.155151 267.101013,136.412262 
	C262.789551,139.194382 258.417633,142.762772 253.423553,144.270889 
	C238.781952,148.692352 223.947311,152.523041 209.064774,156.066315 
	C205.016922,157.030045 199.911041,158.011841 197.649689,152.009079 
z"/>
<path fill="#828284" opacity="1.000000" stroke="none" 
	d="
M126.798126,32.180378 
	C125.841057,32.154259 124.418610,32.133080 123.665192,31.412445 
	C114.848557,22.979425 104.965767,16.396376 93.058044,13.162683 
	C92.628296,13.045980 92.302399,12.546869 91.817551,11.903795 
	C95.249321,12.528090 98.916214,13.155713 102.310188,14.481836 
	C111.852097,18.210135 119.300652,24.987448 126.798126,32.180378 
z"/>
<path fill="#6A6B6C" opacity="1.000000" stroke="none" 
	d="
M105.799133,134.116669 
	C106.539474,133.588913 107.698143,132.452606 108.898735,132.406448 
	C114.162926,132.204041 119.440041,132.259094 124.710999,132.329895 
	C131.969574,132.427383 137.944351,130.119263 141.917770,123.267044 
	C142.021591,124.315277 142.536896,126.162331 141.845444,126.949806 
	C138.370499,130.907455 134.171204,133.638062 128.562881,133.646561 
	C121.120667,133.657837 113.678780,133.878922 105.799133,134.116669 
z"/>
<path fill="#828284" opacity="1.000000" stroke="none" 
	d="
M56.875351,11.390989 
	C52.969280,13.492118 48.580593,15.253672 44.420208,17.448069 
	C40.043407,19.756611 35.884983,22.479183 31.276903,24.974171 
	C35.356850,18.328924 42.742466,16.334379 49.383053,13.243468 
	C51.586308,12.217945 54.113838,11.889094 56.875351,11.390989 
z"/>
<path fill="#828284" opacity="1.000000" stroke="none" 
	d="
M209.731354,11.527582 
	C209.479507,12.295436 209.069260,13.096147 208.422302,13.411964 
	C201.146210,16.963882 193.833710,20.441263 186.170776,23.873890 
	C191.371994,20.332478 196.849472,16.708942 202.539505,13.457348 
	C204.583939,12.289043 207.140274,12.016560 209.731354,11.527582 
z"/>
<path fill="#919293" opacity="1.000000" stroke="none" 
	d="
M158.475281,119.144157 
	C159.613647,120.816490 160.094864,123.418823 161.657013,124.787186 
	C164.788696,127.530426 168.511215,129.599182 172.087189,132.272476 
	C164.989120,132.843338 158.861465,127.066658 158.475281,119.144157 
z"/>
<path fill="#828284" opacity="1.000000" stroke="none" 
	d="
M224.839874,9.440767 
	C221.007019,10.327544 216.739365,11.022230 212.031342,11.533712 
	C215.862350,10.649898 220.133713,9.949286 224.839874,9.440767 
z"/>
<path fill="#828284" opacity="1.000000" stroke="none" 
	d="
M89.723160,10.997555 
	C86.020058,10.931185 82.056786,10.584715 77.895432,9.952665 
	C81.619217,10.017208 85.541107,10.367332 89.723160,10.997555 
z"/>
<path fill="#828284" opacity="1.000000" stroke="none" 
	d="
M69.852127,9.455038 
	C66.729118,10.317350 63.178516,10.988279 59.325729,11.443689 
	C62.490540,10.573332 65.957542,9.918494 69.852127,9.455038 
z"/>
<path fill="#6A6B6C" opacity="1.000000" stroke="none" 
	d="
M27.140316,27.619854 
	C24.697821,30.918591 21.927507,34.103016 18.823143,37.324539 
	C21.263563,34.076271 24.038031,30.790907 27.140316,27.619854 
z"/>
<path fill="#68686B" opacity="1.000000" stroke="none" 
	d="
M282.018799,123.692513 
	C283.433228,120.707474 285.199097,117.799744 287.284668,114.794792 
	C285.859650,117.721649 284.114929,120.745735 282.018799,123.692513 
z"/>
<path fill="#828284" opacity="1.000000" stroke="none" 
	d="
M182.847595,26.297092 
	C180.651840,28.504766 178.105026,30.700968 175.305801,32.707550 
	C177.534439,30.440493 180.015503,28.363054 182.847595,26.297092 
z"/>
<path fill="#828284" opacity="1.000000" stroke="none" 
	d="
M157.825897,31.980343 
	C157.130447,32.333771 156.269638,32.453007 155.210861,32.376617 
	C155.895447,32.036045 156.777985,31.891098 157.825897,31.980343 
z"/>
<path fill="#919293" opacity="1.000000" stroke="none" 
	d="
M189.214020,133.000366 
	C189.884735,132.651291 190.751816,132.497467 191.797119,132.570557 
	C191.120361,132.930191 190.265381,133.062912 189.214020,133.000366 
z"/>
<path fill="#8B8C8D" opacity="1.000000" stroke="none" 
	d="
M268.417969,136.100922 
	C268.559387,135.467560 269.037811,134.837479 269.730835,134.384491 
	C269.548645,135.075775 269.151825,135.589996 268.417969,136.100922 
z"/>
<path fill="#68686B" opacity="1.000000" stroke="none" 
	d="
M271.898865,133.402863 
	C272.050690,132.706970 272.543640,132.130478 273.334137,131.610641 
	C273.167786,132.285629 272.703888,132.903946 271.898865,133.402863 
z"/>
<path fill="#828284" opacity="1.000000" stroke="none" 
	d="
M184.953583,24.430618 
	C184.813385,25.054058 184.356339,25.640024 183.601639,26.214615 
	C183.748230,25.599876 184.192490,24.996511 184.953583,24.430618 
z"/>
<path fill="#919293" opacity="1.000000" stroke="none" 
	d="
M178.155975,132.991516 
	C178.586899,132.655930 179.156311,132.512802 179.851639,132.587830 
	C179.416534,132.931976 178.855484,133.057983 178.155975,132.991516 
z"/>
<path fill="#68686B" opacity="1.000000" stroke="none" 
	d="
M279.030884,126.866791 
	C278.878296,126.456856 278.964020,126.164749 279.302490,125.924934 
	C279.740326,126.073441 279.925446,126.169655 280.110565,126.265877 
	C279.830139,126.505463 279.549683,126.745041 279.030884,126.866791 
z"/>
<path fill="#919293" opacity="1.000000" stroke="none" 
	d="
M143.872040,106.640625 
	C143.751282,106.523018 143.730347,106.484337 143.740509,106.464981 
	C143.832642,106.369286 143.914612,106.292953 143.996597,106.216621 
	C144.061768,106.307159 144.178497,106.398170 144.177658,106.488098 
	C144.176834,106.578697 144.059235,106.668236 143.872040,106.640625 
z"/>
<path fill="#040405" opacity="1.000000" stroke="none" 
	d="
M22.659185,94.032021 
	C22.614107,93.636894 22.569029,93.241768 22.601269,92.170715 
	C22.030441,89.003883 21.382292,86.512962 20.734144,84.022049 
	C20.694107,81.967392 20.654070,79.912743 20.952843,77.213303 
	C21.620836,73.044250 21.950022,69.519974 22.279207,65.995697 
	C22.349367,65.643127 22.419527,65.290558 22.800282,64.490898 
	C25.637556,58.300335 28.164234,52.556862 30.690910,46.813389 
	C31.081898,46.421223 31.472885,46.029057 32.343098,45.362511 
	C33.857666,43.705746 34.893009,42.323349 35.928352,40.940956 
	C35.928352,40.940956 35.996532,40.991562 36.305447,40.982880 
	C37.463055,40.046291 38.311745,39.118389 39.160439,38.190483 
	C39.160439,38.190483 39.011589,38.140388 39.441628,38.152267 
	C40.438549,37.819141 41.051781,37.532047 41.565556,37.120716 
	C56.237518,25.374182 72.619545,23.743332 90.209267,28.710424 
	C99.639008,31.373249 106.884460,37.207848 113.673904,43.918686 
	C115.585159,45.807808 118.035797,48.265087 120.367104,48.410660 
	C127.962936,48.884949 135.617996,48.410889 143.250259,48.301743 
	C148.121597,48.372749 152.992950,48.443760 158.773056,48.571396 
	C166.509674,48.640804 173.346313,48.851055 180.160141,48.548153 
	C182.252213,48.455154 184.603851,47.358952 186.272995,46.019672 
	C189.735413,43.241547 192.551147,39.628632 196.107285,37.001190 
	C210.919876,26.056957 227.287643,23.022602 244.851089,28.865576 
	C250.531097,30.755190 255.789337,33.912567 261.240509,36.490025 
	C262.026978,37.182842 262.813416,37.875660 263.843414,39.067947 
	C264.774597,39.974400 265.462280,40.381382 266.149933,40.788368 
	C266.149933,40.788372 266.139191,40.859932 266.140869,41.181198 
	C266.795471,41.959080 267.448334,42.415695 268.101227,42.872314 
	C268.101227,42.872314 268.036041,42.948807 268.039246,43.278839 
	C271.627533,50.353634 275.508514,56.963364 278.674255,63.899532 
	C280.281921,67.421959 280.600952,71.532516 281.502563,75.377197 
	C281.507996,77.680176 281.513397,79.983154 281.204620,82.878868 
	C279.961029,87.456985 279.554657,91.663315 277.985321,95.378372 
	C275.321106,101.685486 271.923828,107.682953 268.834625,113.810547 
	C268.834625,113.810547 268.956085,113.955513 268.561218,113.959793 
	C267.466064,114.993546 266.765808,116.023026 266.065521,117.052505 
	C266.065521,117.052498 266.002014,117.009285 265.700195,117.037552 
	C264.965332,117.735352 264.532288,118.404884 264.099243,119.074417 
	C264.099274,119.074425 263.688446,119.342659 263.189911,119.439468 
	C261.872803,120.414948 261.054199,121.293625 260.235626,122.172302 
	C260.235626,122.172302 260.162598,122.172752 259.800171,122.179779 
	C253.906570,124.709763 248.393936,127.274643 242.835403,129.735886 
	C240.481155,130.778305 238.030533,131.603027 235.623703,132.526688 
	C235.261246,132.560364 234.898773,132.594025 233.980316,132.495499 
	C231.475021,133.046631 229.525726,133.729965 227.576447,134.413315 
	C227.224579,134.461456 226.872726,134.509598 225.964447,134.437805 
	C223.291794,135.051132 221.175537,135.784378 219.059296,136.517639 
	C218.663376,136.542999 218.267441,136.568359 217.130585,136.484238 
	C215.127945,136.261780 213.866241,136.148788 212.604538,136.035812 
	C212.604538,129.943039 212.604538,123.850258 212.604538,117.204727 
	C199.951584,117.204727 187.883057,117.204727 175.284744,116.680557 
	C174.696167,107.764786 174.695145,99.372009 174.522858,90.982750 
	C174.493469,89.551918 173.731003,88.136147 173.307220,86.713417 
	C158.425186,86.713417 143.543137,86.713417 128.128876,86.713417 
	C128.128876,96.878357 128.128876,106.764450 128.128876,117.142685 
	C115.230789,117.142685 102.854927,117.142685 89.643761,117.142685 
	C89.643761,123.344864 89.643761,129.070862 89.250969,135.409943 
	C87.479317,136.257324 86.100464,136.491623 84.721603,136.725937 
	C84.037270,136.601837 83.352928,136.477737 82.162727,135.970978 
	C80.767006,135.192993 79.911476,134.667023 78.981918,134.422806 
	C70.786758,132.269897 62.108978,131.203262 54.505840,127.758484 
	C46.880177,124.303497 40.322495,118.491318 33.296738,113.712234 
	C33.296741,113.712234 33.030602,113.410278 32.889519,112.941162 
	C30.738602,108.990013 28.676136,105.536980 26.736294,102.016373 
	C25.294855,99.400322 24.012434,96.696663 22.659185,94.032021 
M249.612534,88.602592 
	C249.612534,88.602592 249.677078,88.566116 250.465897,88.825157 
	C252.003067,88.269478 253.540253,87.713799 255.870010,86.979149 
	C261.369537,85.959869 258.166046,81.672112 258.731750,78.923500 
	C259.791473,73.774712 258.643097,70.229988 252.107010,69.920158 
	C247.888809,69.720207 245.630142,65.740273 247.647964,62.426853 
	C251.007034,56.911095 248.515991,54.362297 243.837845,52.196327 
	C241.448074,51.089867 239.129379,49.829926 237.480362,48.994789 
	C234.029633,51.430866 231.066223,55.170074 228.128586,55.149956 
	C224.966019,55.128296 221.827591,51.582741 217.922745,49.092613 
	C216.158203,50.063942 213.518036,51.795383 210.661652,53.024265 
	C206.404984,54.855576 205.405167,57.170723 207.741974,61.482235 
	C210.030533,65.704720 207.894302,69.763580 203.067566,70.064003 
	C197.434708,70.414589 196.070923,73.068977 196.855347,78.015472 
	C197.086807,79.474937 197.055939,81.025772 196.852661,82.494225 
	C196.409302,85.696823 197.768524,87.166870 201.021973,87.959976 
	C202.754272,88.226715 204.486572,88.493454 206.054565,88.936943 
	C206.054565,88.936943 206.242386,88.785416 206.149155,89.457458 
	C206.762497,89.973686 207.375839,90.489922 208.406052,91.765327 
	C208.226151,93.153854 208.046249,94.542374 207.148132,96.035187 
	C206.975754,96.859314 206.803391,97.683449 206.589142,99.022545 
	C206.472565,99.344696 206.355988,99.666840 205.619446,100.070351 
	C205.253418,100.492569 204.887390,100.914787 204.521347,101.337006 
	C205.240494,101.609512 205.959641,101.882011 207.193817,102.532913 
	C208.264084,103.210686 209.334335,103.888458 210.348801,105.284317 
	C212.848297,106.770683 215.276245,108.414268 217.907318,109.611465 
	C218.436951,109.852455 219.737411,108.399429 220.803406,107.792259 
	C220.803406,107.792259 220.727112,107.678223 221.444519,107.793900 
	C222.524490,106.074974 223.604462,104.356041 225.352524,102.245995 
	C228.730484,101.692528 231.813568,101.838058 233.190903,106.324905 
	C233.848877,106.828377 234.506836,107.331848 235.000000,107.997864 
	C235.000000,107.997864 235.168060,107.839119 235.134750,108.572289 
	C238.396606,111.481018 240.110794,109.326752 242.021454,106.327942 
	C242.021454,106.327942 242.467026,106.237381 243.163391,106.594490 
	C245.069016,105.830078 247.210068,105.382233 248.803040,104.197441 
	C249.999344,103.307701 252.644257,101.747498 249.192566,99.244026 
	C249.119293,98.830452 249.046036,98.416885 249.480545,97.735779 
	C248.797134,96.762802 248.113724,95.789825 247.151535,94.170822 
	C247.174225,93.481804 247.196915,92.792786 247.876099,91.946465 
	C248.434570,90.845886 248.993042,89.745316 249.612534,88.602592 
M95.735931,88.736519 
	C95.735931,88.736519 95.770660,88.695534 96.574715,88.771935 
	C99.153458,88.059006 101.732208,87.346069 104.955513,85.965424 
	C104.936638,81.314201 104.917755,76.662971 105.460350,71.715096 
	C102.273148,70.843285 99.085938,69.971466 95.563988,68.745049 
	C95.563988,68.745049 95.248344,68.373337 95.446823,67.771904 
	C94.868378,67.187759 94.289925,66.603615 93.544273,65.264999 
	C93.597778,64.506729 93.651291,63.748459 94.309555,62.589066 
	C95.922180,59.645535 98.750481,56.552914 94.388840,53.749836 
	C90.811722,51.450951 86.946297,49.600674 82.562195,47.197109 
	C81.115547,49.641605 79.749527,51.949871 77.909897,54.849834 
	C75.437561,54.681908 72.965225,54.513981 70.681244,53.665539 
	C69.159485,51.570446 67.637726,49.475353 66.146912,47.422863 
	C64.155075,48.205650 62.478764,48.581234 61.122639,49.454216 
	C57.946712,51.498653 54.356796,53.334724 52.113823,56.183643 
	C51.193077,57.353127 53.433430,60.886631 54.017456,63.395611 
	C54.835941,66.911842 53.074120,68.466766 49.725834,69.277245 
	C47.527069,69.809471 45.555378,71.279816 43.462646,73.205307 
	C43.583801,77.548431 43.704956,81.891563 43.990177,86.942955 
	C45.475426,87.506325 46.918602,88.355667 48.453510,88.581474 
	C53.874165,89.378937 55.513344,91.586937 52.884136,96.609047 
	C50.524445,101.116348 52.052616,103.221428 55.927837,104.994904 
	C57.129833,105.544998 58.471432,106.008980 59.409874,106.878510 
	C63.689552,110.843948 66.863945,110.355873 70.030518,105.289116 
	C72.253220,101.732605 75.836243,101.787537 78.302277,104.643524 
	C83.298225,110.429482 83.299553,110.431808 89.826569,106.686234 
	C91.544922,105.700142 93.466240,104.924469 94.879738,103.607246 
	C95.655083,102.884705 95.565331,101.233826 95.689392,99.459961 
	C95.610756,99.088531 95.532127,98.717102 95.738235,97.632362 
	C95.008759,96.426842 94.279282,95.221313 93.457184,93.341141 
	C93.530396,92.894119 93.603607,92.447090 94.314270,91.723618 
	C94.779167,90.743401 95.244057,89.763184 95.735931,88.736519 
z"/>
<path fill="#8C8E8F" opacity="1.000000" stroke="none" 
	d="
M142.995102,48.031776 
	C135.617996,48.410889 127.962936,48.884949 120.367104,48.410660 
	C118.035797,48.265087 115.585159,45.807808 113.673904,43.918686 
	C106.884460,37.207848 99.639008,31.373249 90.209267,28.710424 
	C72.619545,23.743332 56.237518,25.374182 41.565556,37.120716 
	C41.051781,37.532047 40.438549,37.819141 39.519020,38.163109 
	C43.621273,31.053230 51.065517,28.433113 58.406334,26.399471 
	C80.274170,20.341375 99.079079,26.391600 114.652489,42.465988 
	C118.234673,46.163414 121.804390,47.700493 126.842148,47.412186 
	C132.117462,47.110283 137.438751,47.611576 142.995102,48.031776 
z"/>
<path fill="#8C8E8F" opacity="1.000000" stroke="none" 
	d="
M261.208771,36.156265 
	C255.789337,33.912567 250.531097,30.755190 244.851089,28.865576 
	C227.287643,23.022602 210.919876,26.056957 196.107285,37.001190 
	C192.551147,39.628632 189.735413,43.241547 186.272995,46.019672 
	C184.603851,47.358952 182.252213,48.455154 180.160141,48.548153 
	C173.346313,48.851055 166.509674,48.640804 159.215759,48.489258 
	C164.643494,48.008190 170.538818,47.387222 176.430573,47.419353 
	C180.510071,47.441601 183.643417,46.552128 186.555847,43.426975 
	C199.423660,29.619322 215.166794,22.587860 234.280548,24.403864 
	C244.400101,25.365324 253.568344,28.821360 261.208771,36.156265 
z"/>
<path fill="#87888A" opacity="1.000000" stroke="none" 
	d="
M33.236526,114.060577 
	C40.322495,118.491318 46.880177,124.303497 54.505840,127.758484 
	C62.108978,131.203262 70.786758,132.269897 78.981918,134.422806 
	C79.911476,134.667023 80.767006,135.192993 81.817795,135.925522 
	C79.156914,135.835800 76.297226,135.577271 73.519836,134.952744 
	C61.597652,132.271912 49.619347,129.604843 39.862534,121.570351 
	C37.362991,119.512054 35.390785,116.813377 33.236526,114.060577 
z"/>
<path fill="#87888A" opacity="1.000000" stroke="none" 
	d="
M281.701965,74.950356 
	C280.600952,71.532516 280.281921,67.421959 278.674255,63.899532 
	C275.508514,56.963364 271.627533,50.353634 268.084167,43.256367 
	C275.082428,47.339493 277.208801,54.874622 279.785797,61.908813 
	C281.227448,65.843910 281.243103,70.301407 281.701965,74.950356 
z"/>
<path fill="#87888A" opacity="1.000000" stroke="none" 
	d="
M269.179504,113.851898 
	C271.923828,107.682953 275.321106,101.685486 277.985321,95.378372 
	C279.554657,91.663315 279.961029,87.456985 281.216858,83.259964 
	C283.069427,91.650780 278.786835,98.741623 275.318542,105.948830 
	C273.920624,108.853691 271.486786,111.260025 269.179504,113.851898 
z"/>
<path fill="#87888A" opacity="1.000000" stroke="none" 
	d="
M173.294907,87.200912 
	C173.731003,88.136147 174.493469,89.551918 174.522858,90.982750 
	C174.695145,99.372009 174.696167,107.764786 174.809875,116.629929 
	C174.335526,115.582191 173.376251,114.068649 173.348679,112.538315 
	C173.199417,104.257309 173.280731,95.972145 173.294907,87.200912 
z"/>
<path fill="#87888A" opacity="1.000000" stroke="none" 
	d="
M236.012695,132.697418 
	C238.030533,131.603027 240.481155,130.778305 242.835403,129.735886 
	C248.393936,127.274643 253.906570,124.709763 259.804504,122.216034 
	C254.959671,125.134789 249.846893,128.228149 244.492340,130.822556 
	C242.040649,132.010468 239.113312,132.216705 236.012695,132.697418 
z"/>
<path fill="#87888A" opacity="1.000000" stroke="none" 
	d="
M22.448421,94.286087 
	C24.012434,96.696663 25.294855,99.400322 26.736294,102.016373 
	C28.676136,105.536980 30.738602,108.990013 32.720501,112.831917 
	C26.667604,108.398331 24.413555,101.491150 22.448421,94.286087 
z"/>
<path fill="#87888A" opacity="1.000000" stroke="none" 
	d="
M30.349394,46.855347 
	C28.164234,52.556862 25.637556,58.300335 22.813648,64.221291 
	C25.013571,58.564949 27.510723,52.731129 30.349394,46.855347 
z"/>
<path fill="#87888A" opacity="1.000000" stroke="none" 
	d="
M21.926146,66.160149 
	C21.950022,69.519974 21.620836,73.044250 20.957649,76.772469 
	C20.940126,73.425804 21.256605,69.875206 21.926146,66.160149 
z"/>
<path fill="#87888A" opacity="1.000000" stroke="none" 
	d="
M20.500992,84.305191 
	C21.382292,86.512962 22.030441,89.003883 22.527819,91.881386 
	C21.673977,89.708092 20.970907,87.148209 20.500992,84.305191 
z"/>
<path fill="#87888A" opacity="1.000000" stroke="none" 
	d="
M219.357574,136.696747 
	C221.175537,135.784378 223.291794,135.051132 225.705322,134.500153 
	C223.887024,135.413589 221.771439,136.144730 219.357574,136.696747 
z"/>
<path fill="#87888A" opacity="1.000000" stroke="none" 
	d="
M227.944046,134.602310 
	C229.525726,133.729965 231.475021,133.046631 233.713669,132.555374 
	C232.105911,133.428726 230.208771,134.110016 227.944046,134.602310 
z"/>
<path fill="#87888A" opacity="1.000000" stroke="none" 
	d="
M212.416962,136.269379 
	C213.866241,136.148788 215.127945,136.261780 216.838989,136.543640 
	C215.517624,138.679504 213.750122,140.568985 212.416962,136.269379 
z"/>
<path fill="#87888A" opacity="1.000000" stroke="none" 
	d="
M84.874130,137.014221 
	C86.100464,136.491623 87.479317,136.257324 89.253326,135.858521 
	C89.415047,139.335205 89.238945,139.396500 84.874130,137.014221 
z"/>
<path fill="#87888A" opacity="1.000000" stroke="none" 
	d="
M35.580788,40.928505 
	C34.893009,42.323349 33.857666,43.705746 32.486931,45.125343 
	C33.178768,43.747051 34.205994,42.331551 35.580788,40.928505 
z"/>
<path fill="#87888A" opacity="1.000000" stroke="none" 
	d="
M38.820713,38.123890 
	C38.311745,39.118389 37.463055,40.046291 36.277069,40.951073 
	C36.786850,39.971062 37.633919,39.014179 38.820713,38.123890 
z"/>
<path fill="#87888A" opacity="1.000000" stroke="none" 
	d="
M266.407837,117.039154 
	C266.765808,116.023026 267.466064,114.993546 268.488708,113.899063 
	C268.124146,114.897964 267.437164,115.961876 266.407837,117.039154 
z"/>
<path fill="#87888A" opacity="1.000000" stroke="none" 
	d="
M260.556335,122.206543 
	C261.054199,121.293625 261.872803,120.414948 263.002869,119.598236 
	C262.501923,120.520393 261.689484,121.380585 260.556335,122.206543 
z"/>
<path fill="#87888A" opacity="1.000000" stroke="none" 
	d="
M264.427246,119.088814 
	C264.532288,118.404884 264.965332,117.735352 265.726501,117.065933 
	C265.621490,117.745094 265.188354,118.424149 264.427246,119.088814 
z"/>
<path fill="#87888A" opacity="1.000000" stroke="none" 
	d="
M266.152893,40.469738 
	C265.462280,40.381382 264.774597,39.974400 264.109680,39.237312 
	C264.806915,39.321846 265.481354,39.736477 266.152893,40.469738 
z"/>
<path fill="#87888A" opacity="1.000000" stroke="none" 
	d="
M268.137543,42.548912 
	C267.448334,42.415695 266.795471,41.959080 266.176636,41.175709 
	C266.865112,41.307808 267.519470,41.766663 268.137543,42.548912 
z"/>
<path fill="#DBDDDF" opacity="1.000000" stroke="none" 
	d="
M248.972763,98.003311 
	C249.046036,98.416885 249.119293,98.830452 249.162354,99.862663 
	C246.910446,102.399994 244.688736,104.318687 242.467026,106.237381 
	C242.467026,106.237381 242.021454,106.327942 241.459457,106.471939 
	C238.987656,107.023666 237.077866,107.431389 235.168060,107.839119 
	C235.168060,107.839119 235.000000,107.997864 235.091125,107.602524 
	C234.575043,106.679619 233.967819,106.152046 233.360596,105.624481 
	C231.813568,101.838058 228.730484,101.692528 224.686829,102.500114 
	C222.923126,104.395561 221.825119,106.036896 220.727112,107.678223 
	C220.727112,107.678223 220.803406,107.792259 220.369308,107.789810 
	C216.758347,106.713654 213.581467,105.639946 210.404602,104.566238 
	C209.334335,103.888458 208.264084,103.210686 207.019043,102.063416 
	C206.642654,101.058937 206.441025,100.523964 206.239410,99.988991 
	C206.355988,99.666840 206.472565,99.344696 206.885254,98.608185 
	C207.409698,97.439514 207.638016,96.685204 207.866333,95.930893 
	C208.046249,94.542374 208.226151,93.153854 208.247528,91.063187 
	C207.473480,89.835831 206.857941,89.310623 206.242386,88.785416 
	C206.242386,88.785416 206.054565,88.936943 206.065674,88.466568 
	C204.353516,87.726799 202.630249,87.457413 200.906998,87.188019 
	C197.768524,87.166870 196.409302,85.696823 196.852661,82.494225 
	C197.055939,81.025772 197.086807,79.474937 196.855347,78.015472 
	C196.070923,73.068977 197.434708,70.414589 203.067566,70.064003 
	C207.894302,69.763580 210.030533,65.704720 207.741974,61.482235 
	C205.405167,57.170723 206.404984,54.855576 210.661652,53.024265 
	C213.518036,51.795383 216.158203,50.063942 217.922745,49.092613 
	C221.827591,51.582741 224.966019,55.128296 228.128586,55.149956 
	C231.066223,55.170074 234.029633,51.430866 237.480362,48.994789 
	C239.129379,49.829926 241.448074,51.089867 243.837845,52.196327 
	C248.515991,54.362297 251.007034,56.911095 247.647964,62.426853 
	C245.630142,65.740273 247.888809,69.720207 252.107010,69.920158 
	C258.643097,70.229988 259.791473,73.774712 258.731750,78.923500 
	C258.166046,81.672112 261.369537,85.959869 255.111450,86.896606 
	C252.794281,87.398079 251.235687,87.982101 249.677078,88.566116 
	C249.677078,88.566116 249.612534,88.602592 249.247345,88.680054 
	C248.327957,89.872940 247.773773,90.988358 247.219589,92.103767 
	C247.196915,92.792786 247.174225,93.481804 247.183502,94.811295 
	C247.801239,96.302277 248.386993,97.152794 248.972763,98.003311 
M218.763382,85.462677 
	C220.331512,86.651489 221.788254,88.039627 223.489487,88.990204 
	C227.876053,91.441231 231.984070,90.185028 235.354141,87.073288 
	C238.718887,83.966461 240.192551,79.970428 238.457642,75.343414 
	C236.097275,69.048210 229.792847,66.022285 224.106110,68.421333 
	C217.056931,71.395142 215.019745,77.228928 218.763382,85.462677 
z"/>
<path fill="#E1E3E6" opacity="1.000000" stroke="none" 
	d="
M95.248344,68.373337 
	C95.248344,68.373337 95.563988,68.745049 95.696342,69.330032 
	C98.852089,70.613922 101.875488,71.312836 104.898880,72.011749 
	C104.917755,76.662971 104.936638,81.314201 104.218102,86.156937 
	C100.910683,87.130814 98.340668,87.913170 95.770660,88.695526 
	C95.770660,88.695534 95.735931,88.736519 95.423889,88.761200 
	C94.633507,89.857285 94.155167,90.928673 93.676819,92.000069 
	C93.603607,92.447090 93.530396,92.894119 93.320648,93.910469 
	C93.940575,95.768425 94.697037,97.057045 95.453499,98.345673 
	C95.532127,98.717102 95.610756,99.088531 95.551262,99.973831 
	C92.728905,102.343910 90.000389,104.139908 87.372368,106.072548 
	C84.491203,108.191360 82.448097,107.618912 80.297760,104.783730 
	C76.493431,99.767761 72.254395,99.814873 68.340378,104.906746 
	C66.337601,107.512215 64.451118,108.260765 61.675472,106.298256 
	C60.463230,105.441147 59.172867,104.622513 57.802765,104.074448 
	C53.945984,102.531670 53.051174,100.451477 55.000885,96.425064 
	C57.532715,91.196526 54.596134,86.890068 48.800014,86.419373 
	C47.147942,86.285217 45.484394,86.292351 43.826111,86.234695 
	C43.704956,81.891563 43.583801,77.548431 43.827972,72.599564 
	C45.331371,71.780571 46.462257,71.512070 47.608673,71.362984 
	C55.482033,70.339073 57.441109,67.289299 54.422508,60.003483 
	C53.254894,57.185287 53.961571,55.615105 56.385780,54.319141 
	C58.140480,53.381088 60.023018,52.598927 61.586105,51.403957 
	C64.371140,49.274830 66.368828,49.898891 68.234680,52.594173 
	C68.751839,53.341221 69.727554,53.770817 70.492889,54.346054 
	C72.965225,54.513981 75.437561,54.681908 78.487732,54.536106 
	C80.986549,52.935139 83.350792,50.212765 84.741516,50.642307 
	C88.257370,51.728222 91.662544,53.874069 94.396057,56.377190 
	C95.250809,57.159893 93.815735,60.436394 93.451324,62.575191 
	C93.430801,62.695633 93.615570,62.851051 93.704796,62.990189 
	C93.651291,63.748459 93.597778,64.506729 93.435471,65.815033 
	C93.967224,67.034492 94.607780,67.703918 95.248344,68.373337 
M64.984932,72.675171 
	C62.011063,77.529030 62.337048,82.210541 66.122795,86.401566 
	C69.260689,89.875374 73.264214,91.251572 77.827553,89.557388 
	C82.614861,87.780045 85.546501,84.265221 85.646362,79.091072 
	C85.746132,73.921181 83.010880,70.328621 78.232285,68.364502 
	C72.999985,66.213890 68.898636,68.143639 64.984932,72.675171 
z"/>
<path fill="#6C6D6E" opacity="1.000000" stroke="none" 
	d="
M43.908142,86.588821 
	C45.484394,86.292351 47.147942,86.285217 48.800014,86.419373 
	C54.596134,86.890068 57.532715,91.196526 55.000885,96.425064 
	C53.051174,100.451477 53.945984,102.531670 57.802765,104.074448 
	C59.172867,104.622513 60.463230,105.441147 61.675472,106.298256 
	C64.451118,108.260765 66.337601,107.512215 68.340378,104.906746 
	C72.254395,99.814873 76.493431,99.767761 80.297760,104.783730 
	C82.448097,107.618912 84.491203,108.191360 87.372368,106.072548 
	C90.000389,104.139908 92.728905,102.343910 95.639389,100.244614 
	C95.565331,101.233826 95.655083,102.884705 94.879738,103.607246 
	C93.466240,104.924469 91.544922,105.700142 89.826569,106.686234 
	C83.299553,110.431808 83.298225,110.429482 78.302277,104.643524 
	C75.836243,101.787537 72.253220,101.732605 70.030518,105.289116 
	C66.863945,110.355873 63.689552,110.843948 59.409874,106.878510 
	C58.471432,106.008980 57.129833,105.544998 55.927837,104.994904 
	C52.052616,103.221428 50.524445,101.116348 52.884136,96.609047 
	C55.513344,91.586937 53.874165,89.378937 48.453510,88.581474 
	C46.918602,88.355667 45.475426,87.506325 43.908142,86.588821 
z"/>
<path fill="#6C6D6E" opacity="1.000000" stroke="none" 
	d="
M70.587067,54.005798 
	C69.727554,53.770817 68.751839,53.341221 68.234680,52.594173 
	C66.368828,49.898891 64.371140,49.274830 61.586105,51.403957 
	C60.023018,52.598927 58.140480,53.381088 56.385780,54.319141 
	C53.961571,55.615105 53.254894,57.185287 54.422508,60.003483 
	C57.441109,67.289299 55.482033,70.339073 47.608673,71.362984 
	C46.462257,71.512070 45.331371,71.780571 43.837646,72.161926 
	C45.555378,71.279816 47.527069,69.809471 49.725834,69.277245 
	C53.074120,68.466766 54.835941,66.911842 54.017456,63.395611 
	C53.433430,60.886631 51.193077,57.353127 52.113823,56.183643 
	C54.356796,53.334724 57.946712,51.498653 61.122639,49.454216 
	C62.478764,48.581234 64.155075,48.205650 66.146912,47.422863 
	C67.637726,49.475353 69.159485,51.570446 70.587067,54.005798 
z"/>
<path fill="#7B7B7D" opacity="1.000000" stroke="none" 
	d="
M94.007172,62.789627 
	C93.615570,62.851051 93.430801,62.695633 93.451324,62.575191 
	C93.815735,60.436394 95.250809,57.159893 94.396057,56.377190 
	C91.662544,53.874069 88.257370,51.728222 84.741516,50.642307 
	C83.350792,50.212765 80.986549,52.935139 78.724533,54.240257 
	C79.749527,51.949871 81.115547,49.641605 82.562195,47.197109 
	C86.946297,49.600674 90.811722,51.450951 94.388840,53.749836 
	C98.750481,56.552914 95.922180,59.645535 94.007172,62.789627 
z"/>
<path fill="#6C6D6E" opacity="1.000000" stroke="none" 
	d="
M105.179611,71.863419 
	C101.875488,71.312836 98.852089,70.613922 95.863716,69.507332 
	C99.085938,69.971466 102.273148,70.843285 105.179611,71.863419 
z"/>
<path fill="#4D4E52" opacity="1.000000" stroke="none" 
	d="
M210.376709,104.925278 
	C213.581467,105.639946 216.758347,106.713654 220.308838,107.757393 
	C219.737411,108.399429 218.436951,109.852455 217.907318,109.611465 
	C215.276245,108.414268 212.848297,106.770683 210.376709,104.925278 
z"/>
<path fill="#4D4E52" opacity="1.000000" stroke="none" 
	d="
M242.815216,106.415939 
	C244.688736,104.318687 246.910446,102.399994 249.293915,100.150436 
	C252.644257,101.747498 249.999344,103.307701 248.803040,104.197441 
	C247.210068,105.382233 245.069016,105.830078 242.815216,106.415939 
z"/>
<path fill="#6C6D6E" opacity="1.000000" stroke="none" 
	d="
M96.172684,88.733734 
	C98.340668,87.913170 100.910683,87.130814 103.895821,86.490799 
	C101.732208,87.346069 99.153458,88.059006 96.172684,88.733734 
z"/>
<path fill="#4D4E52" opacity="1.000000" stroke="none" 
	d="
M235.151398,108.205704 
	C237.077866,107.431389 238.987656,107.023666 241.271027,106.599152 
	C240.110794,109.326752 238.396606,111.481018 235.151398,108.205704 
z"/>
<path fill="#4D4E52" opacity="1.000000" stroke="none" 
	d="
M221.085815,107.736069 
	C221.825119,106.036896 222.923126,104.395561 224.352783,102.695671 
	C223.604462,104.356041 222.524490,106.074974 221.085815,107.736069 
z"/>
<path fill="#6C6D6E" opacity="1.000000" stroke="none" 
	d="
M95.595871,97.989014 
	C94.697037,97.057045 93.940575,95.768425 93.366959,94.247795 
	C94.279282,95.221313 95.008759,96.426842 95.595871,97.989014 
z"/>
<path fill="#4D4E52" opacity="1.000000" stroke="none" 
	d="
M200.964478,87.573997 
	C202.630249,87.457413 204.353516,87.726799 206.147827,88.378189 
	C204.486572,88.493454 202.754272,88.226715 200.964478,87.573997 
z"/>
<path fill="#4D4E52" opacity="1.000000" stroke="none" 
	d="
M250.071487,88.695641 
	C251.235687,87.982101 252.794281,87.398079 254.715149,86.986084 
	C253.540253,87.713799 252.003067,88.269478 250.071487,88.695641 
z"/>
<path fill="#6C6D6E" opacity="1.000000" stroke="none" 
	d="
M93.995544,91.861847 
	C94.155167,90.928673 94.633507,89.857285 95.410400,88.784424 
	C95.244057,89.763184 94.779167,90.743401 93.995544,91.861847 
z"/>
<path fill="#4D4E52" opacity="1.000000" stroke="none" 
	d="
M247.547852,92.025116 
	C247.773773,90.988358 248.327957,89.872940 249.216827,88.701126 
	C248.993042,89.745316 248.434570,90.845886 247.547852,92.025116 
z"/>
<path fill="#4D4E52" opacity="1.000000" stroke="none" 
	d="
M249.226654,97.869553 
	C248.386993,97.152794 247.801239,96.302277 247.322906,95.134300 
	C248.113724,95.789825 248.797134,96.762802 249.226654,97.869553 
z"/>
<path fill="#4D4E52" opacity="1.000000" stroke="none" 
	d="
M205.929428,100.029671 
	C206.441025,100.523964 206.642654,101.058937 206.761536,101.874207 
	C205.959641,101.882011 205.240494,101.609512 204.521347,101.337006 
	C204.887390,100.914787 205.253418,100.492569 205.929428,100.029671 
z"/>
<path fill="#7B7B7D" opacity="1.000000" stroke="none" 
	d="
M95.347580,68.072617 
	C94.607780,67.703918 93.967224,67.034492 93.519073,66.192268 
	C94.289925,66.603615 94.868378,67.187759 95.347580,68.072617 
z"/>
<path fill="#4D4E52" opacity="1.000000" stroke="none" 
	d="
M233.275757,105.974693 
	C233.967819,106.152046 234.575043,106.679619 235.173523,107.521255 
	C234.506836,107.331848 233.848877,106.828377 233.275757,105.974693 
z"/>
<path fill="#4D4E52" opacity="1.000000" stroke="none" 
	d="
M207.507233,95.983040 
	C207.638016,96.685204 207.409698,97.439514 206.906204,98.350700 
	C206.803391,97.683449 206.975754,96.859314 207.507233,95.983040 
z"/>
<path fill="#4D4E52" opacity="1.000000" stroke="none" 
	d="
M206.195770,89.121429 
	C206.857941,89.310623 207.473480,89.835831 208.039093,90.683594 
	C207.375839,90.489922 206.762497,89.973686 206.195770,89.121429 
z"/>
<path fill="#0F0F0F" opacity="1.000000" stroke="none" 
	d="
M218.581573,85.112518 
	C215.019745,77.228928 217.056931,71.395142 224.106110,68.421333 
	C229.792847,66.022285 236.097275,69.048210 238.457642,75.343414 
	C240.192551,79.970428 238.718887,83.966461 235.354141,87.073288 
	C231.984070,90.185028 227.876053,91.441231 223.489487,88.990204 
	C221.788254,88.039627 220.331512,86.651489 218.581573,85.112518 
z"/>
<path fill="#121212" opacity="1.000000" stroke="none" 
	d="
M65.178406,72.353729 
	C68.898636,68.143639 72.999985,66.213890 78.232285,68.364502 
	C83.010880,70.328621 85.746132,73.921181 85.646362,79.091072 
	C85.546501,84.265221 82.614861,87.780045 77.827553,89.557388 
	C73.264214,91.251572 69.260689,89.875374 66.122795,86.401566 
	C62.337048,82.210541 62.011063,77.529030 65.178406,72.353729 
z"/>
</svg>