<?xml version="1.0" encoding="UTF-8"?>
<svg version="1.1" viewBox="0 0 1600 1600" width="1280" height="1280" xmlns="http://www.w3.org/2000/svg">
<path transform="translate(0)" d="m0 0h1600v1600h-1600z" fill="#FEFEFE"/>
<path transform="translate(1266,126)" d="m0 0h6l3 5v21l-1 41-3 36-5 22-7 24-8 21-9 17-6 12v33l-3 20-2 19-1 2h-2l2 8 12 23 6 15-2-1 3 9 2 2 2 8 4 8 2 1v8l3 1 11 33 4 7 7 21 2 5v6l-2-2-6-16-7-20 5 18 7 20 4 13 3 11 6 24 1 1 1 12 2 12 1 2 2 15 3 20 1 3 2 31 2 7v59l-2 22-2 11-1 14-5 34-2 13-5 23-4 11-5 10-5 13-8 16-20 32-12 18-9 12-7 9-9 10-6 7h-2l-2 4-6 7-6 4-13 11-4 1v2l-9 6-7 7-17 12-18 10-10 4-10 5-11 4-5 3v2l13 10 7 1 11 9 1 3 4 2 5 3 7 7 5 2 4 7v17l-2 8 1 6 17 34 11 26 6 13 9 24 5 14 5 8 2 5v5l-10 9-9 7-17 14-11 8-15 10-11 6-9 5-15 8-17 10-16 8-13 7-10 4-9 4-11 6-16 6-11 4-17 5-12 3-7 3-27 6-16 4-36 7-18 2-22 2-24 1h-38l-33-1-18-2-16-1-13-3-17-3-27-5-18-5-21-5-9-3-20-7-28-10-19-9-21-9-18-10-15-9-19-10-25-17-12-9-14-11-18-14-5-4 1-10 4-8 7-25 8-13 13-28 8-20 11-26 2-24 2-12 16-17 13-10 11-8 5-5-1-3-16-8-18-10-11-7v-2l-5-2-10-7-20-15-11-9-13-11-11-12-10-12-10-14v-2h-2l-4-6-11-13-8-11-15-27-11-25-5-14-4-15-3-16-3-9-3-19-2-8-3-24v-41l3-61 4-46 1-5 1-15 5-32 3-14 2-14 4-10 4-15 3-8 5-21 2-6 4-14 3-8 7-21 6-15 5-11 10-21 7-18v-14l-2-10-3-13v-26l1-5v-10l-4-8-10-19-6-12-3-8-7-21-6-25-2-15-1-3-3-40v-19l1-24 3-4h7l5 5 9 10 11 14 15 16 8 7 10 9 14 11 17 11 15 9 13 5 9 4 18 5 21 5 12 3 18 4 17 2h16l12-9 9-5 16-6 34-14 17-6 16-5 32-7 16-3 30-4 24-2 23-1h20l35 2 26 3 28 5 36 8 21 6 10 3 9 4 15 5 15 7 16 6 9 6 11 8h11l38-7 21-5 34-10 21-10 24-15 13-10 13-11 11-9 12-12 7-8 11-14 6-8z" fill="#1F1F2D"/>
<path transform="translate(1097,485)" d="m0 0h3l7 8 5 8-8 18-8 19-10 16-12 13-4 3h-2l-1 3-11 9-17 12-15 9-31 15-23 10-18 8-14 8-12 8-17 13-10 9-21 21-11 9-9 10-6 9 9-1 10-2 7-3 11-8 19-12 24-14 25-14 16-10 24-14 21-13 10-6 11-10 8-7 10-9 19-19 7-8 10-11 9-15 14-26 5-10 5 5 7 12 10 24 11 33 9 39 3 17 5 48 2 28v32l-6 2-4 1-20 1-12-2-3-2v-3l5-3 3-3 5-1v-2l7-4 4-5-5 1h-22l-13-3 4-5 7-6 5-4 1-3 3-3-7 1h-28l-14-4v-2l8-4 4-4 1-3h2l3-10-4 2h-5v2l-21 4h-8l2-9 1-4v-7l-2-1v2l-5 2-2 3-5 3h-2v2h-4v2l-3 1h-8l1-2h2l1-5-20 7-27 2-18 4-20 9-13 7-16 12-13 12-11 13-13 20-8 14-4 8-2 9h-2l-1 20v15l4-2 2-5 10-16 12-17 3-3 4 22 6 15 7 13 2 4 3 1 2 5h2l5 5 8 7 12 7 16 6v2l18 3 22 1v-2l17-4 12-5 11-5 12-9 7-6 11-14 8-17 4-11 2-15v-16l-3-17-5-16-3-7v-3h2v2l4 2 10 10 8 10 7 8 1 5-7 24-1 4h5v-2l6-1v-2l10-5 7-3 17-10 10-7 7-8h4v17l-3 26-1 2-3 21-7 20-7 16-10 19-8 16-9 12-12 14-18 20-7 7-20 15-13 8-19 11-16 10-50 25-25 11-19 7-15 5-34 14-61 22-20 6-27-8-67-22-30-12-31-11-40-18-23-11-27-16-26-15-12-9-11-9-13-14-6-9-1-3h-2l-8-10-7-9-8-11-13-23-6-13-2-5-5-21-3-9-3-15-2-6-4-26-1-9-1-22v-31l3-39 3-24 5-26 9-42 6-20 10-25 8-16 5-7 4 2 7 15 8 17 14 21 11 14 12 13 13 12 11 9 10 9 24 16 24 14 20 11 13 8 27 14 21 11 16 8 9 6 18 8 12 3-7-8-11-12-11-9-18-18-13-11-18-13-18-11-12-7-19-7-8-4-14-5-14-7-11-6-20-12-13-9-10-8-11-9-7-7-11-18-12-30-2-7v-8l4-6 5-5 6 1 13 6 21 7 26 8 46 16 29 11 27 12 23 11 22 13 17 14 11 9 17 17 7 8 28 28 11 8 6 1 10-9 14-15 9-8 8-10 15-14 8-8 22-18 11-7 18-11 19-10 30-13 19-8 47-16 14-5 32-10 20-8z" fill="#A03A2F"/>
<path transform="translate(508,727)" d="m0 0h2l-3 10-5 15-2 14v32l3 17 8 15 9 10 7 8 10 8 7 5 17 7 14 4 12 1 18-1 17-4 13-4 5-2v-2l5-1v-2l4-1 1-2 6-3 3-1 2-4 5-5h2l2-4 7-10 5-9 4-12 3-25 5 5 11 16 6 8 9 15 1 3 5 2v-23l-3-14v-3h-2l-3-10h-2l-5-8-1-7 6 1 7 4 10 8 2 1v2l4 2 3 3v2h2l6 7v2l6 2v2h15l-3 5-9 7-8 8-5 8-4 4-1 3h-2l-1 5h-2v7l9-5 10-7 10-6 13-10 14-9 2-1h8l14 8 18 14 21 14 5 4h2l-3-7v-3h-2l-4-7-4-4v-3h-2l-2-4-3-2-3-5-1-3 1-2h3v-2l8-4h2l1-3h3l1-3 4-2 5-5h4l2-4 1 4-1 5-1 15v15l4-2 2-5 10-16 12-17 3-3 4 22 6 15 7 13 2 4 3 1 2 5h2l5 5 8 7 12 7 16 6v2l18 3 22 1v-2l17-4 12-5 11-5 12-9 7-6 11-14 8-17 4-11 2-15v-16l-3-17-5-16-3-7v-3h2v2l4 2 10 10 8 10 7 8 1 5-7 24-1 4h5v-2l6-1v-2l10-5 7-3 17-10 10-7 7-8h4v17l-3 26-1 2-3 21-7 20-7 16-10 19-8 16-9 12-12 14-18 20-7 7-20 15-13 8-19 11-16 10-50 25-25 11-19 7-15 5-34 14-61 22-20 6-27-8-67-22-30-12-31-11-40-18-23-11-27-16-26-15-12-9-11-9-13-14-6-9-1-3h-2l-8-10-7-9-8-11-13-23-6-13-2-5-5-21-3-9-1-13 2 4 3 7-3-31v-8l1-9v-5l-3-7 4 1 9 7 17 9 15 8 14 8 1 1-1-11-2-12v-11l12-16 11-13z" fill="#FEFEFE"/>
<path transform="translate(1097,485)" d="m0 0h3l7 8 5 8-8 18-8 19-10 16-12 13-4 3h-2l-1 3-11 9-17 12-15 9-31 15-23 10-18 8-14 8-12 8-17 13-10 9-21 21-11 9-9 10-6 9 9-1 10-2 7-3 4-3 2 1-7 6-11 7-32 30-8 7-14 9-8 3-13 1-9-2-12-8-10-9-13-12-9-9-11-9-9-8-9-7 2-1 16 7 12 3-7-8-11-12-11-9-18-18-13-11-18-13-18-11-12-7-19-7-8-4-14-5-14-7-11-6-20-12-13-9-10-8-11-9-7-7-11-18-12-30-2-7v-8l4-6 5-5 6 1 13 6 21 7 26 8 46 16 29 11 27 12 23 11 22 13 17 14 11 9 17 17 7 8 28 28 11 8 6 1 10-9 14-15 9-8 8-10 15-14 8-8 22-18 11-7 18-11 19-10 30-13 19-8 47-16 14-5 32-10 20-8z" fill="#FEFEFE"/>
<path transform="translate(340,174)" d="m0 0 5 2 1 1 7 1 12 12 7 8 12 11 16 11 10 6 27 13 29 11 38 10 47 9v19l3 18 3 15-5 5-4 1h-6l23 12 15 13 17 13 27 18 13 10 36 24 28 20 22 18 14 13 11 14 12 17 5 7 7 14 12 20 10 16v2l5-1 15-27 14-23 16-24 9-11 11-11 8-7 13-11 19-14 16-12 19-13 27-18 12-9 18-11 10-6 12-11 14-10 29-15 33-16 16-8 25-12 19-11 17-12 16-12 13-10 13-11 8-7 8-8 12-17 5-5-1 7-12 32-10 21-14 23-10 14-13 16-24 28-7 7-11 9-13 10-24 14-18 11-18 10-14 8-12 5-47 16-36 12-27 11-16 8-16 9-8 7-11 9-19 19-7 6-15 20-9 14-8 14-12 20-13 23-4 6-4-4-14-24-12-21-10-18-12-17-11-14-15-15-11-9-15-13-16-10-24-12-27-11-26-8-50-17-15-6-3-3-4 1-11-3-17-6-20-8-26-12-16-8-19-13-14-12-16-16-13-17-9-16-13-34-10-38-3-20-1-10z" fill="#DD8FB5"/>
<path transform="translate(772,205)" d="m0 0h37v11h-10l1 6v43l-1 72-1 15-1 3-4 4-10 4-19 7-14 6-7 2-10 4-15 4-5 1-3 2-5 1h-8l-10-5-14-10-19-13-9-7-10-9-9-10-12-16-12-20-7-15-10-27 1-5 16-7 5-3 11-4 9-4 20-6 22-6 15-4 24-6 23-4 27-3z" fill="#777A86"/>
<path transform="translate(1245,195)" d="m0 0 1 4-11 30-8 18-11 20-14 21-11 14-11 13-12 14-11 12-10 9-16 12-24 14-18 11-18 10-14 8-12 5-47 16-36 12-27 11-16 8-16 9-8 7-11 9-19 19-7 6-15 20-9 14-8 14-12 20-13 23-4 6-4-4-14-24-12-21-3-6-1-9-3-3-1-3-4-5-1-5-3-1-4-6v-3h-2l-1-3-5-5-4-6-5-4-8-10-5-5-2-6-1-5-3-3 2-2v3l7-1 4 1v2l3-1 1 2 3 1v3l4-1 5 1 6 8h3l8 12 8 11 7 14 12 20 10 16v2l5-1 15-27 14-23 16-24 9-11 11-11 8-7 13-11 19-14 16-12 19-13 27-18 12-9 18-11 10-6 12-11 14-10 29-15 33-16 16-8 25-12 19-11 17-12 16-12 13-10 13-11 8-7 8-8 12-17z" fill="#D473BD"/>
<path transform="translate(508,727)" d="m0 0h2l-3 10-5 15-2 14v32l3 17 8 15 9 10 7 8 10 8 7 5 17 7 14 4 12 1 18-1 17-4 13-4 5-2v-2l5-1v-2l4-1 1-2 6-3 3-1 2-4 5-5h2l2-4 7-10 5-9 4-12 3-25 5 5 11 16 6 8 9 15 1 3 5 2v-23l-3-14v-3h-2l-3-10h-2l-5-8-1-7 6 1 7 4 10 8 2 1v2l4 2 3 3v2h2l6 7v2l6 2v2h15l-3 5-9 7-8 8-5 8-4 4-1 3h-2l-1 5h-2l1 8-3 1v2l-8 7-7 5-7 8-16 16-16 12-14 8-16 8-14 6-13 4-15 3-15 2h-19l-21-3-15-4-19-7-17-9-16-11-13-11-11-11-20-26-8-13-4-14-2 2-2-10v-7l2 4 3 7-3-31v-8l1-9v-5l-3-7 4 1 9 7 17 9 15 8 14 8 1 1-1-11-2-12v-11l12-16 11-13z" fill="#FEBD98"/>
<path transform="translate(1082,727)" d="m0 0h2v2l4 2 10 10 8 10 7 8 1 5-7 24-1 4h5v-2l6-1v-2l10-5 7-3 17-10 10-7 7-8h4v17l-3 26-1 2-2 15-2-1-6 16-15 26-12 16-12 14-8 8-10 8-16 10-19 9-15 5-20 4-8 1h-33l-18-3-24-8-26-13-16-10-38-38-4-3v-2l-3-1 1-2-3-7v-3h-2l-4-7-4-4v-3h-2l-2-4-3-2-3-5-1-3 1-2h3v-2l8-4h2l1-3h3l1-3 4-2 5-5h4l2-4 1 4-1 5-1 15v15l4-2 2-5 10-16 12-17 3-3 4 22 6 15 7 13 2 4 3 1 2 5h2l5 5 8 7 12 7 16 6v2l18 3 22 1v-2l17-4 12-5 11-5 12-9 7-6 11-14 8-17 4-11 2-15v-16l-3-17-5-16-3-7z" fill="#F27152"/>
<path transform="translate(465,512)" d="m0 0 4 2 7 15 8 17 14 21 11 14 12 13 13 12 11 9 10 9 24 16 24 14 20 11 13 8 3 3v2l-10 2-2 4 5 5 1 3h-6l-13-5-12-3-26-3-17-5v3l4 2-1 3-8-1-3-1v-2l-5-2-20-13-2-1 1 11h2l3 12h-8l-23-4-13-5v3h2v3h2l3 5 9 10 2 4-10 3h-29l2 5 7 7 7 6v2l-31 4h-7l4 5 3 1 3 3 9 4 4 1v3h-2v2l-7 3-6 1h-19l-12-2 8 6-1 2 3 6v8l-1 6 1 19 2 17v5l-3-3-3-8-2-4-2-6-4-26-1-9-1-22v-31l3-39 3-24 5-26 9-42 6-20 10-25 8-16z" fill="#A03A30"/>
<path transform="translate(575,702)" d="m0 0h23l17 3 16 6 11 6 10 8 7 7 11 16 5 12 2 10v20l-1 4h-2l-1 9h-2l-1 7-3 6h-2l-1 5-4 4-4 6-8 5-1 2-9 5-9 6-8 4-18 4h-26l-4-1v-2l-8-1-9-4v-2l-10-4-1-2-3-1-1-2-3-1-5-5-6-7-3-2-1-5h-2l-6-16-3-10-1-1v-30l3-14 7-14 11-13 10-8 11-5 15-4z" fill="#F49839"/>
<path transform="translate(992,702)" d="m0 0h23l21 5 12 5 9 6 5 5 4 5 8 15 4 13 1 5v30l-4 11-3 9-4 8h-2v3l-4 4-6 7-3 3-7 4-6 4-1 2-6 3-5 3-8 3-12 3-15 1-8-1-9-3-17-7v-2l-5-1v-2h-3l-5-5-3-1-12-12-1-4-2-1-7-14-5-21v-18l4-11 8-15 11-13 7-7 10-7 16-8 13-3z" fill="#F39839"/>
<path transform="translate(1097,485)" d="m0 0h3l7 8 5 8-8 18-8 19-3 4v-2l-31 1-19 2-31 6-32 8-28 9-20 6-25 12-19 13-14 10-11 9-12 11-11 9-6 5-7 8-27 27h-2l-1 3-4-1-10-9-5-6v-2l-4-2-23-23-17-13-14-11-19-14-15-9-16-8-24-10-44-14-38-10-24-5-23-2-25-1-11-27-2-7v-8l4-6 5-5 6 1 13 6 21 7 26 8 46 16 29 11 27 12 23 11 22 13 17 14 11 9 17 17 7 8 28 28 11 8 6 1 10-9 14-15 9-8 8-10 15-14 8-8 22-18 11-7 18-11 19-10 30-13 19-8 47-16 14-5 32-10 20-8z" fill="#99A0AC"/>
<path transform="translate(1139,876)" d="m0 0 1 2-7 13-9 12-12 14-18 20-7 7-20 15-13 8-19 11-16 10-50 25-25 11-19 7-15 5-34 14-61 22-20 6-27-8-67-22-30-12-31-11-40-18-23-11-27-16-26-15-12-9-11-9-13-14-6-9-1-3h-2l-6-7v-2h2v2l4 2 13 12 11 9 9 7 13 9 13 8 16 8 24 11 26 10 31 10 32 8 39 7 31 4 19 2 16 1h42l34-3 39-6 34-7 26-7 27-9 32-13 26-12 23-14 17-12 14-11 13-12 11-12 13-11 2-3h2l2-4z" fill="#99A0AC"/>
<path transform="translate(524,664)" d="m0 0 5 2 17 11 5 3v2l11 1-1-3-2-1v-3l17 4 26 3 18 5 14 6 17 9 14 10 10 9 16 16 10 15 6 11 4 4 3 7 2 5h2l3 8v2h2l3 12 1 5v19l-1 4-5-2-8-13-7-11-7-9-9-13-3 24-4 12-8 14-7 9h-2l-2 4-8 7-3 2h-3l-1 3h-4v2l-5 1v2l-7 4-22 6-6 1-19 1-16-2-17-6-10-5-14-10-9-9-9-11-4-6-5-10-3-17v-32l3-18 8-21-7 6-8 10-9 12-2 3v11l3 18v6l-15-8-6-4-16-8-14-8-10-9-7-5 4-1 9 2h19l9-2 4-1v-2h2v-3l-7-1-9-5v-2l-4-1-3-3v-2l32-4h6l-5-6-8-7-3-3v-4l29-1 10-2-14-16v-3h-2v-3h-2v-3l9 2 4 2 23 4h7l-2-8v-3h-2l-1-4zm51 38-15 3-14 5-9 6-9 8-9 12-5 11-3 14v30l3 8 3 10 3 5 1 4h2l2 6 5 5 7 6 1 2 3 1 1 2 3 1 1 2 8 4h2v2l9 4 8 1v2l4 1h26l18-4 8-4 11-7 7-4 5-5 5-3 5-8 2-1 1-5h2l4-8v-5h2l1-9h2l1-4v-20l-4-16-6-11-10-13-8-8-14-9-11-5-13-4-13-2z" fill="#22202D"/>
<path transform="translate(772,205)" d="m0 0h37v11l-10 1-1 15h-2v2l-5 1-2 4-6 5-4 5-5 1-5 3h-3v2l-14 8-2 2-9 2-4 3-10 4-10 5-11 5-9 4-5 3-13 3-11 5-5 2-3 2-9 2-9 3h-5l-5 4-10 4h-2l-1 3-6-1-10-16-8-17-10-27 1-5 16-7 5-3 11-4 9-4 20-6 22-6 15-4 24-6 23-4 27-3z" fill="#898B97"/>
<path transform="translate(340,174)" d="m0 0 5 2 1 1 7 1 12 12 7 8 12 11 16 11 10 6 27 13 29 11 38 10 47 9v19l3 18 3 15-5 5-4 1h-10l-37-19-16-8-25-12-18-10-17-12-12-9-10-8-13-11-11-9-14-14-7-8-6-5 8 24 13 28 8 15 12 19 7 9 9 11 9 10 7 8 12 13 11 9 15 11 18 10 20 11 15 9 18 11 6 5-3 1-5-4-4 1-11-3-17-6-20-8-26-12-16-8-19-13-14-12-16-16-13-17-9-16-13-34-10-38-3-20-1-10z" fill="#787B87"/>
<path transform="translate(938,1213)" d="m0 0h20l-6 8-5 3-12 10-9 7-10 9-8 7-7 7-7 8-8 8-4 5-6 4-9 9-10 8-36 36-9 11-5 6-11 9-21 21-11 14-7 8-3 5-8 7-1 3-8 8-39-3-7-1 1-4 11-13 7-8 9-10 8-7 5-5 3-5 8-7 3-4 5-3 15-16 8-10 21-21 7-8 8-9 5-3 7-8 6-4 10-11 7-8 8-6 9-10 6-4 14-14 7-4 9-8z" fill="#F37252"/>
<path transform="translate(1166,798)" d="m0 0 2 1-2 15-2-1-6 16-15 26-12 16-12 14-8 8-10 8-16 10-19 9-15 5-20 4-8 1h-33l-18-3-24-8-26-13-16-10-37-37h3l5-1 12-6 8-3h10l16 9 12 9 12 7 18 6 14 3 7 1h25l19-3 20-4 11-4 12-6 15-10 4-2 5 2 1 2 13 1 1 4 8-1v2h8l3-1 1-5 5-4 7-8 7-14 5-8 6-17 2-4z" fill="#FEBD98"/>
<path transform="translate(464,577)" d="m0 0h3l8 12 13 16 10 13 11 11 2 1v2l4 1 16 10 4 4 14 9 4 4v2h2v2h3l3 9v1l-8-1-3-1 1 4 5 3-1 3-7-3-24-15 1 11h2l3 12h-8l-23-4-13-5v3h2v3h2l3 5 9 10 2 4-10 3h-29l2 5 7 7 7 6v2l-31 4h-7l4 5 3 1 3 3 9 4 4 1v3h-2v2l-7 3-6 1h-19l-6-3 3-41 5-49 2-13 2-16 7-19 7-15 8-15z" fill="#F37252"/>
<path transform="translate(549,334)" d="m0 0 1 2 8-1 11 7 11 10 17 13 27 18 13 10 36 24 28 20 22 18 14 13 10 13-1 3-2-2-5-7-4 1v-2l-4 1v-3l-4-1-3-1-2-2h-9l-1-1v2l3 1 1 5 2 2-1 3 2 1 1 4 3 1v2l3 1 4 6 7 6 5 8 3 2v3h2l2 5 5 5 2 5 5 6v4l3 1 1 6h-3l-9-15-14-19-11-12-9-9-11-9-15-13-16-10-24-12-27-11-26-8-50-17 2-2-3-3-2-7 3-1-16-8-6-5-6-3-4 1-5-3-5-1 2-5 2-2h5l2 4 10-3 3-2 3-5 8-7 2-4 4-1-1-5-2-2v-3h2v-2l2-1-5-2v-4z" fill="#E07EB7"/>
<path transform="translate(1118,581)" d="m0 0 3 1 10 15 10 22 7 21 2 7 2 13 6 31 5 33 2 24-1 2-3 1h-24l-5-1v-2h-4v-2l5-3 3-3 5-1v-2l7-4 4-5-5 1h-22l-13-3 4-5 7-6 5-4 1-3 3-3-7 1h-28l-14-4v-2l8-4 4-4 1-3h2l3-10-4 2h-5v2l-21 4h-8l2-9 1-4v-7l-2-1v2l-5 2-2 3-5 3h-2v2h-4v2l-3 1h-8l1-2 4-2v-4h-5l-3 2-4-1v-3l-4-3 2-5 8-6 17-10 16-10 9-6 11-8 7-7 1-2h2v-3h2l2-5 7-10 6-10h2l1-4z" fill="#F37252"/>
<path transform="translate(508,727)" d="m0 0h2l-3 10-5 15-2 14v32l3 17 8 15 9 10 7 8 10 8 7 5 17 7 14 4 12 1 18-1 17-4 13-4 5-2v-2l5-1v-2l4-1 1-2 6-3 3-1 2-4 5-5h2l2-4 7-10 5-9 4-12 3-25 5 5 11 16 6 8 9 15 1 3 5 2v-23l-3-14v-3h-2l-3-10h-2l-5-8-1-7 6 1 7 4 10 8 2 1v2l4 2 3 3v2h2l6 7v2l6 2v2h15l-3 5-9 7-8 8-5 8-4 4-1 3h-2l-1 5h-2l1 8-3 1v2l-5 4-5 3h-4l-11-7-8-3h-7l-9 4-14 9-13 8-15 7-20 6-22 3h-13l-21-3-29-9-14-6-15-9-7-6-7-8-6-7v-2h-2l-7-10-10-19-5-14-3-10v-4l8 3 16 10-1-11-2-12v-11l12-16 11-13z" fill="#F47253"/>
<path transform="translate(600,718)" d="m0 0 7 1 12 4 10 6 9 8 9 11 5 10 1 4v22h-2l-1 7-3 9-2 3h-2l-1 5-4 2-2 4-4 4-3 5-4 2h-3v2l-12 5-4 1h-20l-11-1-3-1v-2h-4v-2h-3v-2l-5-1-11-10v-3l-3-1v-3h-2v-3h-2l-5-11-2-8v-23l5-16 5-13 3-2 5 14 6 7 8 5h12l10-4 7-6 4-8 1-3v-10z" fill="#201F2D"/>
<path transform="translate(980,717)" d="m0 0h4l-3 10v10l5 10 5 5 4 3 5 1h15l10-5 4-5 3-7 1-15 4 2 7 8 7 14 4 13 1 5v17l-5 16-3 6h-2v3h-2l-1 4-13 13h-4v2l-13 5-18 1-13-1-10-4v-2h-3l-3-3-8-7-1-3-4-2-1-4h-2v-3h-2l-1-5h-2l-5-15v-17l2-11 6-12 7-9 8-8 10-7z" fill="#201F2D"/>
<path transform="translate(794,824)" d="m0 0h8l9 5 10 8 7 7 10 14 10 15 2 4-1 5-11 19-9 19-10 19-15 28-4 4-5-1-7-9-14-27-9-19-6-13-9-15-2-5h-2l1-6 8-14 11-14 7-9 9-8 10-6z" fill="#F49939"/>
<path transform="translate(636,674)" d="m0 0 5 2 36 18 19 10 13 8 5 5 13 11 14 12 14 14 16 14 13 8 14 2 3 6 4 4 12 8 13 10 12 11 1 3 4 4v2h2v3l3 1 5 7v3h2l4 11-4-1-14-10-11-7-18-14-14-8h-8l-10 6-14 10-8 6-13 8-10 7h-3v-7h2l1-5h2l1-5 4-3 4-7 12-12 6-4 1-3h-10l-3-1v-2l-4-1-8-8v-2h-2l-5-6-2-1v-2l-5-2-8-7-8-4-4-1-1 3-7-11-9-15-11-12-14-14-17-12-21-11 3-1-7-8 3-5 8-2 2 1v-2l-3-1z" fill="#8B342F"/>
<path transform="translate(623,1200)" d="m0 0 8 1 27 5 14 2v2l10 1 3 2 6 1 17 17 10 8 21 21 7 8 20 20 7 8 5 3 1 2 3 1 1 4-4 6-8 7-4 5-2 4-6 5-1 2-3-1-7-8-15-14-11-11-8-7-13-13-3-2-3-5-39-39-8-7-14-14-7-8-4-4z" fill="#F47252"/>
<path transform="translate(1245,195)" d="m0 0 1 4-11 30-8 18-11 20-14 21-11 14-11 13-12 14-11 12-10 9-4 2-1-3v-3l-6 4-2 5h-2v-3l-7 1 1 3-6 2v-3l-2-1v-5l7-6h2l1-3-3-1 1-4h2l2-5 8-7 1-3 3-3-1-4-4 1h-2l-3 1v-2l-3 1-3-1v-5l-7-1-1 2-2-4h-2v-2h3v-2l3-1-6-1 4-3 17-8 19-11 17-12 16-12 13-10 13-11 8-7 8-8 12-17zm-125 103 1 2 2-2z" fill="#C96CAC"/>
<path transform="translate(575,702)" d="m0 0h23l17 3 16 6 11 6 10 8 7 7 11 16 5 12 2 13-20-6-3-1v12h-1l-1-16-4-10-6-9-8-9-11-8-12-5-11-3 2 8v10l-4 9-6 7-10 5-3 1h-12l-10-7-6-8-4-11-4 8-6 18-1 4-1 18h-1l-1-12-17-1-3-1-1 7h-1v-12l3-14 7-14 11-13 10-8 11-5 15-4z" fill="#8F4730"/>
<path transform="translate(992,702)" d="m0 0h23l21 5 12 5 9 6 5 5 4 5 8 15 4 13 1 5v9h-1v-6l-6 2-14 1-1 11h-1l-2-17-5-15-6-12-8-9-2-1v15l-5 10-6 5-7 3h-15l-7-2-6-5-6-10-1-3v-10l3-8 1-2-11 4-12 9-8 8-8 13-3 8-1 8h-1l-1-6-14 9-8 4h-1v-7l4-11 8-15 11-13 7-7 10-7 16-8 13-3z" fill="#904831"/>
<path transform="translate(798,287)" d="m0 0h1v50l-1 15-1 3-4 4-10 4-19 7-14 6-7 2-10 4-15 4-5 1-3 2-5 1h-8l-10-5-14-10-13-9 3-2 9-2 2-1 10-1 5-3 12-3 5-4 32-10 8-4 9-2 11-5 18-9 8-7 4-3 1-6z" fill="#6A6C79"/>
<path transform="translate(355,215)" d="m0 0 2 2 5 13 11 24 8 15 12 19 7 9 9 11 9 10 7 8 12 13 11 9 15 11 18 10 20 11 15 9 18 11 6 5-3 1-5-4-4 1-11-3-17-6-20-8-26-12-16-8-19-13-14-12-16-16-13-17-9-16-13-34-6-23v-6l4 1 3 5 6 4 1-3-5-11z" fill="#888A96"/>
<path transform="translate(1047,1117)" d="m0 0h3l-1 9-14 15-7 8-7 7-8 7-15 13-36 36-4 2h-20l-40 7-4 2 6-7 12-12 8-7 14-12 12-12 14-11 10-10 13-8 29-13 20-8z" fill="#9F3A2F"/>
<path transform="translate(544,1117)" d="m0 0 8 1 16 6 24 10 23 10 11 6 27 27 13 12 15 14 8 9-1 2-16-4v-2l-14-1-27-5-8-2 1 3-4-2-32-32-8-7-11-11-8-10-9-10-8-12z" fill="#A03B30"/>
<path transform="translate(1169,753)" d="m0 0 3 1v17l-3 26-3 1-2 11-2 1-6 17-6 9-7 14-3 3h-2l-1 3h-2l-1 3h-2l-1 5-5 2-7-2h-7l-1-3-13-1-5-3h-3l-22 14-11 5-11 3h-5l4-2 12-4 16-8 10-7 12-11 6-8 3-5h2l2-5 10-17 5-10 7-17-1-3 17-10 14-9z" fill="#FCAB77"/>
<path transform="translate(426,758)" d="m0 0 4 1 9 7 17 9 6 4 1 4 6 19 9 19 7 11 2 4h2l7 9 8 9 13 9 11 6-3 1-9-4-5-2v-2l-5-2v-2h-3v-2h-3l-3-3h-6l-2 7v6l-1 2-3 1h-7l-12-3-5-1-2-6-6-5-1-4-3-1v-2l-3-1-7-10-4-3-3-9v-2h-2l-2 2-2-10v-7l2 4 3 7-3-31v-8l1-9v-5z" fill="#FCAB77"/>
<path transform="translate(912,1361)" d="m0 0 4 1v2l6 2v2h3v2l5 2 5 6 5 3 6 6 3 5v2l-5 5-6 4-7 8-8 6-11 10-18 4-32 4-9 1h-9l2-4 7-7 9-11 7-7 3-2 3-5 3-2 3-5 10-10 6-5 2-4 5-5 7-6z" fill="#D95944"/>
<path transform="translate(475,1145)" d="m0 0 5 1 2 2 5 2 13 10 7 6v2l5 2 7 6 3 3 2 15 2 26v11l-3 1v2l-14 7-4 4h-3l-1 3h-2l-5-10v-2h-2l-4-8-1-7h-2l-3-10-2-5v-3h-2l-7-28-3-16v-7l5-5z" fill="#F37252"/>
<path transform="translate(1116,1143)" d="m0 0 4 1 3 4v16l-5 26h-2v7l-2 6h-2l-1 5-7 16-3 8-6 13-6-2-19-10-4-1v-28h2v-13l2-13 11-8 12-8 10-10z" fill="#F37152"/>
<path transform="translate(794,824)" d="m0 0h8l9 5 10 8 7 7 10 14 10 15 2 4-1 5-11 19-9 19-10 19-15 28-4 4-5-1-7-9-14-27-9-19-6-13-9-15-2-5h-2l1-6 8-14 11-14 7-9 9-8 10-6zm1 11-7 3-12 13v2l-4 2-11 18-2 3v6l8 16 10 19 8 16 11 23 2 3 6-13 1-5h2l2-8 3-1 16-33 8-16 1-7-5-10-9-11-3-2-3-5-6-5-5-5-3-2z" fill="#25212E"/>
<path transform="translate(791,1354)" d="m0 0 1 4-3 8-4 6-5 5-3 5h-3v3h-2l-2 5-10 13-1 2h-2l-2 4-1 4 2-1-2 4-8 7-1 3-8 8-39-3-7-1 1-4 11-13 7-8 9-10h3l7-6h2v-2l9-6h4l1-3h2v-2l4-1 1-3 5-1v-2l10-5 7-3 5-4 9-2z" fill="#DA5944"/>
<path transform="translate(796,778)" d="m0 0h2l3 6 4 4 12 8 13 10 12 11 1 3 4 4v2h2v3l3 1 5 7v3h2l4 11-4-1-14-10-11-7-18-14-14-8h-8l-10 6-14 10-8 6-13 8-10 7h-3v-7h2l1-5h2l1-5 4-3 4-7 12-12 6-4 10-8 15-10 3-5z" fill="#22202E"/>
<path transform="translate(772,205)" d="m0 0h37v10l-43 2-26 3-34 6-41 9-26 8-26 11-22 11-4-1-2-6 1-5 16-7 5-3 11-4 9-4 20-6 22-6 15-4 24-6 23-4 27-3z" fill="#FCFBFB"/>
<path transform="translate(751,889)" d="m0 0 4 5 6 9 10 23 15 30 7 11 3 3 5-1 6-9 20-39 8-16 8-15h3l-1 10-7 21-11 26-19 38-8 12-4 2-9-13-14-25-7-17-6-15-7-16-3-12v-10z" fill="#9AA0AC"/>
<path transform="translate(833,1349)" d="m0 0 4 1 5 5 9 8 3 3 11 9 7 7v3l-8 7-12 11-9 10-4-1-6-7-5-5-14-13-4-3v-2l-4-1 1-5 12-13z" fill="#D65843"/>
<path transform="translate(999,709)" d="m0 0h20l8 4 6 10v16l-5 10-6 5-7 3h-15l-7-2-6-5-6-10-1-3v-10l3-8 5-5 8-4z" fill="#FDFCFC"/>
<path transform="translate(573,707)" d="m0 0h9l10 4 6 5 3 5 1 5v10l-4 9-6 7-10 5-3 1h-12l-10-7-6-8-3-8v-7l6-9 8-7 8-4z" fill="#FDFCFC"/>
<path transform="translate(889,711)" d="m0 0 11 1 2 1-2 5-5 5-9 6h-3v3h-3v2l-8 7-6 7-3 3h-2l-2 4h-2l-1 3h-2v2l-3 2-2 3-5 2v2l-2 1-2 4h-2l-2 4-4 6-2 6-5 1-5-2h-5v-2l-6 2 1 2-5-2-5-5-2-3v-3l-2-1 12-2 9-5 14-10 12-12 8-7 8-8 10-8 11-7 3-3 5-3z" fill="#8B3631"/>
<path transform="translate(1076,1111)" d="m0 0 5 1 13 9 10 8 11 10 4 4-8 4-11 9-8 8-21 14-2 3 1-23 3-38z" fill="#9F3A2F"/>
<path transform="translate(552,1203)" d="m0 0 6 1 18 12 16 10 1 4-1 3h-2l-1 4-5 2v5l-3 3h-2l-2 5-4 3-3 1-2 10v12l-1 3-4-2-7-15-3-14-2-24v-20z" fill="#6A6C79"/>
<path transform="translate(515,1111)" d="m0 0h5l1 1 1 14 1 58h-1l-1-7-5-2-7-6-2-1v-2l-4-2-8-7-9-7-5-2-3-2-4 1-3 2 2-4 16-13 13-11 8-7z" fill="#9F3A2F"/>
<path transform="translate(436,344)" d="m0 0 6 2 9 6 5 2 14 9 28 15 16 10 14 8 9 7 3 3-5-1-3-3-4 1-11-3-17-6-20-8-26-12-16-8-19-13-1-2 8 1 5-2 2-3h2z" fill="#787B87"/>
<path transform="translate(1082,727)" d="m0 0h2v2l4 2 10 10 8 10 7 8 1 5-7 24-3 9-1 5-5 11-7 13-4 6-15 15-20 12-4 1 5-5 9-7 6-5 11-14 8-17 4-11 2-15v-16l-3-17-5-16-3-7z" fill="#F2BDA3"/>
<path transform="translate(560,705)" d="m0 0h15l13 1 2 2v2l-8-2h-9l-9 4-8 6-6 8-7 14-6 18-1 4-1 18h-1l-1-12-17-1-3-1-1 7h-1v-12l3-14 7-14 11-13 10-8 11-5z" fill="#904831"/>
<path transform="translate(673,715)" d="m0 0 5 3 5 8 5 4v2h2v2l5 2 10 6 7 4v2l10 5 5 5 8 5v2l5 2 8 5 1 2 7 4 9 8v2l4 2 2 4h2v2l3 1-3 5h-4-10l-3-1v-2l-4-1-8-8v-2h-2l-5-6-2-1v-2l-5-2-8-7-8-4-4-1-1 3-7-11-9-15-5-6-3-5-13-13z" fill="#A03A30"/>
<path transform="translate(794,846)" d="m0 0 7 1 2 5 1 9v39l-4 27-1 2-3-1-5-23-5-16-3-14v-17l1-5h2l2-4z" fill="#FFBE99"/>
<path transform="translate(508,727)" d="m0 0h2l-3 10-5 15-2 14v32l3 17 8 15 9 10 7 8-1 2-9-8-8-7-8-8-8-17-7-15-2-4 2 1-1-11-2-12v-11l12-16 11-13z" fill="#F0BA9E"/>
<path transform="translate(1150,651)" d="m0 0 2 4 3 12 2-5 6-2 1-1 2-4 2 15 1 1 3 31 1 15v32l-6 2-4 1-20 1-12-2-3-3h4v2h32l-1-15-2-18-6-38-5-23z" fill="#BC543E"/>
<path transform="translate(822,855)" d="m0 0 5 5 8 11 2 5-1 7-25 50h-2l-1 4-7 6h-1l1-8 8-30 8-25 6-20z" fill="#B7533C"/>
<path transform="translate(887,756)" d="m0 0 1 4-8 14-4 8-2 9-2-3-2 3-5 2-3 1-2 4-3 1-1 2-3 1-3 3-5 3h-3v2h-3l-1 3-6-4-6-7 2-4 6-4h2l1-3 6-4 4-1 1-3 7-6 11-8 17-8z" fill="#B8533D"/>
<path transform="translate(689,781)" d="m0 0 5 5 11 16 6 8 5 9v3l-14 3-16 8-17 10h-2l2-5 8-11 5-9 4-12z" fill="#FBFBFA"/>
<path transform="translate(543,286)" d="m0 0 7 1 1 1 3 18 3 15-5 5-4 1h-10l-25-13-5-5 5-1 8 2 6 1-1-3 3-1 6-12 4-4z" fill="#6A6C79"/>
<path transform="translate(901,783)" d="m0 0h1l4 22 6 15 7 13 2 4 3 1 3 6-5-2-6-4-3-3-19-9-12-3h-6l2-5 8-14 12-16z" fill="#F9F7F6"/>
<path transform="translate(575,702)" d="m0 0h23l17 3-2 2 11 4 10 4 7 5v2h3l3 3v2h2l4 6-1 4h-7v-2l-5-2v-2l-4-1-8-6-12-7-3-1h-16l-7-5-2-4-24-2 4-2z" fill="#8C332E"/>
<path transform="translate(930,410)" d="m0 0 3 1-2 6-1 2h-2l-1 5-7 1-1 3-1-1-3 4-6 4-1 2-3 1-4 4h-2l-1 4-4 1v2l-6 2-1 3-3 2-4 1-5 1-1 3h-3v3l-5 3-5 4-5 2-5 3 2-4 11-11 8-7 13-11 19-14 16-12z" fill="#DB7DB5"/>
<path transform="translate(1047,1117)" d="m0 0h3l-1 9-14 15-7 8-7 7-2-1 6-7-8 1-7 1-2-4 5-5 6-3 2-3h2l1-6-13 5-3-1 26-11z" fill="#8C332E"/>
<path transform="translate(710,765)" d="m0 0 6 1 7 4 10 8 2 1v2l4 2 3 3v2h2l6 7v2l6 2v2h15l-3 5-3 2-5 1-10-7-2-2-7-2-8-5-4-1v-2h-3v-2l-2-1 1-2-3 2-1 3-3-10h-2l-5-8z" fill="#D75844"/>
<path transform="translate(531,644)" d="m0 0 5 2 21 12 16 8 27 12 3 3v1l-18-1-14-1-12-4v3l4 2-1 3-8-1-3-2h4v-2l-6-4 1-3 10 1-2-9h-3v-2h-2l-5-6-16-10z" fill="#D35743"/>
<path transform="translate(715,1415)" d="m0 0 8 1 5 2 7 2 1 6-3 6 4 2-39-3-7-1 1-4 6-7 1 2 5-4 9-1z" fill="#B4503C"/>
<path transform="translate(1048,740)" d="m0 0h3l5 6 7 3 4-1 4-7h2l5 15 1 5v9h-1v-6l-6 2-14 1-1 11h-1l-2-17-5-15z" fill="#B6513C"/>
<path transform="translate(488,486)" d="m0 0 6 1 13 6 11 4v2l7 3v1l-12-1-16 2-2 1-10 1-3 3h-2l-1-4v-8l4-6z" fill="#888A96"/>
<path transform="translate(1057,855)" d="m0 0 3 3-1 5-4 5h-3v2l-6 1v2l-10 3-9 2h-4v2l-9-2h-3l-1-2 6-3h-7v-1l17-4 12-5 6-3 8-2z" fill="#D75944"/>
<path transform="translate(795,850)" d="m0 0h4l2 8v33l-2 3-4-2-4-7-2-10-2-9v-7l4-6z" fill="#fff"/>
<path transform="translate(1027,661)" d="m0 0 2 1-3 1-1 5 5 5-1 1 5-1 1-1h5l1 5-3 2 1-5-20 7h-30v-2l8-4 15-7z" fill="#D15642"/>
<path transform="translate(629,750)" d="m0 0h7l5 5 2 5v8l-4 4-3 1h-9l-5-4-2-4 1-8 4-5z" fill="#F9F8F8"/>
<path transform="translate(958,685)" d="m0 0h3l2 4 6-1-4 3-21 10-14 10-4 2 1-3 7-5-4 2-1-3h-2v2l-5 2v-4-2h2l1-3 9-6 10-3 7-4z" fill="#8C332E"/>
<path transform="translate(858,1419)" d="m0 0h3 16l1 2-3 9 11 1v1l-33 4h-9l2-4 7-7z" fill="#B24F3B"/>
<path transform="translate(992,702)" d="m0 0h23v1l-17 1-4 3-13 5-9 4-4 4-7 1v2h-2v2l-3 1-3-6-3-2 13-8 12-5z" fill="#8C332E"/>
<path transform="translate(824,861)" d="m0 0h1l1 9 3 5-1 7-2 4h-2l-3 13-10 21-3 5h-1l1-11 7-22 8-29z" fill="#904930"/>
<path transform="translate(833,1349)" d="m0 0 4 1 4 5-8 7-20 20 1 4-4-2v-2l-4-1 1-5 12-13z" fill="#8D332E"/>
<path transform="translate(536,748)" d="m0 0h2l-1 10-1 4-1 18h-1l-1-12-17-1-3-1-1 7h-1v-12l1-7h2l1-4 3 3v2h2l1 3 5-1 3-3h2l2-4z" fill="#B6513C"/>
<path transform="translate(465,512)" d="m0 0 4 2 7 15 8 17 12 18-1 2-7-9-9-16-3-6-3 3v3h-5l-5-5-1-8 1-4-2-3-2 1 2-5z" fill="#8C332E"/>
<path transform="translate(794,570)" d="m0 0 8 2 2 6v4l2-1 1 7-10 16-4-4-1-3v-11l-1-3 1-10z" fill="#C96CAC"/>
<path transform="translate(879,769)" d="m0 0h1l-1 7-3 6-2 9-2-3-2 3-5 2-3 1-2 4-3 1-1 2-3 1-3 3-5 3h-3v2h-3l-1 3-4-4 1-2 6-1 10-10 8-7h2v-2l3-1 1-2h3l1-5h2v-3z" fill="#D85844"/>
<path transform="translate(848,1379)" d="m0 0 13 1v2l10 2 1-2v3l-8 7-3 2v-4l-7 1v2l-6 2-2 4-2 1-4-2-1-5 1-4 4-1z" fill="#B7523D"/>
<path transform="translate(794,846)" d="m0 0 7 1 2 5 1 9v39l-4 27-1 2-3-1-5-23-5-16-3-14v-17l1-5h2l2-4zm1 2-5 3-4 5-2 7 1 13 5 19 6 20 3 3 3-16 1-8v-31l-2-14-1-1z" fill="#FDAC77"/>
<path transform="translate(476,378)" d="m0 0 9 3 20 8v2l12 3 17 6 6 5-3 1-5-4-4 1-11-3-17-6-20-8-4-6z" fill="#6A6C79"/>
<path transform="translate(425,757)" d="m0 0 3 1v3l2 4v8l-1 6 1 19 2 17v5l-3-3-3-8-2-4-2-6-1-5v-14h2v2h2z" fill="#D05642"/>
<path transform="translate(436,641)" d="m0 0h1l-1 11-4 35-4 47-1 16 3 2-7-1v-2h-5v-7h2l1-9 2-3h2l4-37 4-35z" fill="#CF5842"/>
<path transform="translate(1169,753)" d="m0 0 3 1v17l-3 26-3 1-2 11-2-1v-9l3-26v-13l-3 2 2-4z" fill="#C65340"/>
<path transform="translate(552,868)" d="m0 0 8 1 5 2v2h21l-2 1v2l19 1-1 2-7 2-10 1-8-1h-3l-12-2v-2l-4-2-6-5z" fill="#D95A45"/>
<path transform="translate(496,789)" d="m0 0 2 1 1 7 1 1 3 17 8 15 9 10 7 8-1 2-10-9-7-8-5-6-8-15-6-13 1-3 3-1-1-3h3z" fill="#F7F5F4"/>
<path transform="translate(912,1361)" d="m0 0 4 1v2l6 2v2h3v2l5 2 5 6 5 3 6 6 3 5v2l-5 5-6 4-3 3-2-1 7-9 1-6h-2l1-4h-2l-2-5-4-2-4-3-6-3v-3h-2v-2l-5 1-7 1-4 3h-2l2-4 7-6z" fill="#E66A4F"/>
<path transform="translate(340,174)" d="m0 0 5 2 1 1 7 1 10 10-5 5h-8l-10-3z" fill="#6A6C79"/>
<path transform="translate(1168,671)" d="m0 0h1l3 31 1 15v32l-6 2-1-5-2-19v-5h2l1 4 1 8 2-6v-25l-2-21z" fill="#99392F"/>
<path transform="translate(544,1117)" d="m0 0 8 1 16 6-4 1 1 4-1 2-7 1 6 8 5 6-1 2-10-11-10-13-3-5z" fill="#8C332E"/>
<path transform="translate(473,912)" d="m0 0h2v2l4 2 13 12 7 6 3 5 10 9 3 2v2l-4-1-2-1v-2l-5-1-2-2h-3l-11-12-6-9-1-3h-2l-6-7z" fill="#868894"/>
<path transform="translate(1270,513)" d="m0 0 3 4 6 18 6 16v2l3 1 2 11 2 6 3 14-1 7-2-4-2-5-3-13-4-14-4-12-5-13-4-15z" fill="#858995"/>
<path transform="translate(1015,703)" d="m0 0 10 1 17 5 11 6-4 2v2h-3v2l-5-2-8-4v-2l-4-2-7-3v-2l-7-2z" fill="#8C332E"/>
<path transform="translate(1166,798)" d="m0 0 2 1-2 15-2-1-6 16-15 26-5 2-4 5h-2l-1 2 1-5 5-4 7-8 7-14 5-8 6-17 2-4z" fill="#E79DAD"/>
<path transform="translate(1097,485)" d="m0 0h3l7 8 1 2h-3l-1 3-12 2-7-3v-4h2v-2l4-3 3-2z" fill="#888A96"/>
<path transform="translate(501,735)" d="m0 0 2 3-1 7-3 7-6 7-3 2h-3l-2-3v-3l10-13z" fill="#979FAC"/>
<path transform="translate(518,843)" d="m0 0 4 2 5 4 9 6 8 6 17 7 14 4v1h-10v-2l-16-3-5-2-9-5-10-8-3-5z" fill="#E06149"/>
<path transform="translate(648,748)" d="m0 0 3 2v2h2v2l3 1 5 5v2l4 2 5 3 5 1v2h2l-1 3-22-7v12h-1l-1-16-4-10z" fill="#B7523D"/>
<path transform="translate(422,755)" d="m0 0 5 1-2 1 1 26-3-1v-2h-2v8h-1l-1-7v-13l1-12z" fill="#B44F3B"/>
<path transform="translate(731,778)" d="m0 0 4 1v2l4 2 3 3v2h2l6 7v2l6 2v2h15l-3 5-3 2-5 1-4-5-2-1v-2l-3-1v-2l-4-2v-2l-4-2-5-5-7-8z" fill="#B7523D"/>
<path transform="translate(426,719)" d="m0 0h1l-1 29-1 2 5 1-4 1-3-1v-2h-5v-7h2l1-9 2-3h2z" fill="#B7523D"/>
<path transform="translate(577,669)" d="m0 0 5 1 20 9 1 3-18-1-5-1 3-7-6-3z" fill="#B9543E"/>
<path transform="translate(628,866)" d="m0 0 2 1-9 4 6-1-2 4-5 3-7 1h-8l-1-2 7-2h-24v-1l18-1 17-4z" fill="#C1503D"/>
<path transform="translate(695,1220)" d="m0 0 4 2 9 9 10 8 21 21 7 8 13 13-1 2-20-20-7-8-12-12-8-7-10-9z" fill="#F39978"/>
<path transform="translate(1081,834)" d="m0 0h2l-2 4-9 9-20 12-4 1 5-5 9-7 6-5 4-4h3z" fill="#D4A1A3"/>
<path transform="translate(819,941)" d="m0 0 2 1-1 5-6 12-3 5-5 2-1-3 10-18z" fill="#8B8E9A"/>
<path transform="translate(912,836)" d="m0 0 6 2 9 7 8 8 10 6v2l4 1 1 2-5-1-11-6-7-6-1-4-4-1-1-3-9-6z" fill="#C25640"/>
<path transform="translate(759,626)" d="m0 0 7 6 19 19h-5l-3-3h-2l-5-6h-2l-7-9-1-2z" fill="#838591"/>
<path transform="translate(1008,670)" d="m0 0 2 1-3 1-1 6-2 1 15 1v1h-30v-2l8-4z" fill="#B34F3B"/>
<path transform="translate(689,781)" d="m0 0 5 5 7 10-1 2-10-1-2 2z" fill="#E5C0AD"/>
<path transform="translate(556,335)" d="m0 0 5 2 9 6 10 9 9 7-3 1-9-5-4-4v-2l-4-2v-2l-4-2-8-5z" fill="#C68AAB"/>
<path transform="translate(765,891)" d="m0 0 3 4 13 24 11 23 1 5-3-4-10-20-10-19-5-10z" fill="#FCA973"/>
<path transform="translate(488,796)" d="m0 0h2l7 16 9 17 10 10-1 2-14-14-8-17-5-11z" fill="#EA9BAA"/>
<path transform="translate(764,546)" d="m0 0 3 1v3h2l2 4 2 1v6l3 1 2 5 2 2 1 5-2 2-12-21-3-6z" fill="#D47BB1"/>
<path transform="translate(1245,443)" d="m0 0 4 2 5 10 5 14-1 4-4-5-3-7-2-7-3-7z" fill="#9B9193"/>
<path transform="translate(514,747)" d="m0 0 6 1 1 3h2v2l5-1 5-2-2 4-7 5h-4v-4h-2l-3-4-2 3z" fill="#A03C30"/>
<path transform="translate(824,636)" d="m0 0 2 1-2 4-8 8h-2l-1 3-5 4h-2l1-4 4-5 4-4h2v-2h3l1-3z" fill="#898B97"/>
<path transform="translate(465,512)" d="m0 0 4 2 3 7-1 4-6-2-4-2-2 1 2-5z" fill="#8E432F"/>
<path transform="translate(607,1185)" d="m0 0 4 2 10 9 11 4 26 5v1l-10-1-20-4h-6l-15-15z" fill="#C55640"/>
<path transform="translate(428,787)" d="m0 0h1l3 28v5l-3-3-3-8-2-4v-8l3 4 1 3z" fill="#F47252"/>
<path transform="translate(791,778)" d="m0 0h5l1 4-4 6-3 2h-3l1-5-1-3-2-1 1-2z" fill="#8D4B36"/>
<path transform="translate(1286,553)" d="m0 0 2 1 2 11 2 6 3 14-1 7-2-4-2-5-2-17-2-9z" fill="#81797E"/>
<path transform="translate(860,1302)" d="m0 0 2 1-41 41v-3l18-18z" fill="#713230"/>
<path transform="translate(1090,381)" d="m0 0 6 1-5 4-19 10-1-2 3-2-1-2 6-3 6-1 1-3z" fill="#B26EA1"/>
<path transform="translate(425,757)" d="m0 0 3 1v3l2 4v8l-2 14h-1l-1-11-1-3z" fill="#EF6E50"/>
<path transform="translate(1164,727)" d="m0 0h1l2 20-1 4-3 1-20 1-12-2-3-3h4v2h32z" fill="#B24839"/>
<path transform="translate(428,402)" d="m0 0 4 1 7 5 1 5-3 1-6-2-4-8z" fill="#6A6C79"/>
<path transform="translate(716,820)" d="m0 0 2 4-16 3-17 8-4 1 5-4 16-8 7-2h7z" fill="#E897AC"/>
<path transform="translate(901,1375)" d="m0 0 1 3-3 5-12 9-3 1 1-4 10-9z" fill="#E3684C"/>
<path transform="translate(839,1355)" d="m0 0 4 1-2 1v2h-2l-1 4-4 1-1 3-6 3-6 6-2-1z" fill="#BA533E"/>
<path transform="translate(518,843)" d="m0 0 4 2 5 4 9 6 8 6 11 5-3 1-16-8-13-10z" fill="#DFA19C"/>
<path transform="translate(875,822)" d="m0 0h8l14 4 19 10-2 1-15-7-11-4-12-1-2 1z" fill="#D79AAB"/>
<path transform="translate(1267,937)" d="m0 0v3l-7 13-9 14-5 6v-3l6-10 14-22z" fill="#99969D"/>
<path transform="translate(473,912)" d="m0 0h2v2l4 2 13 12 7 6-2 1-5-3-7-7-4-2v-2h-2l-6-7z" fill="#9F9CA3"/>
<path transform="translate(417,748)" d="m0 0 6 1-3 2 4 4h-2l-1 2-2 16h-1l-1-9z" fill="#97382F"/>
<path transform="translate(399,1030)" d="m0 0h3v2l4 2 15 11 7 7h-3l-13-10-13-11z" fill="#963A31"/>
<path transform="translate(1276,521)" d="m0 0 2 4 4 10 2 7 2 5v6l-2-2-6-16-3-10z" fill="#454551"/>
<path transform="translate(611,706)" d="m0 0h7l13 5 4 3-3 1-17-6z" fill="#8E432F"/>
<path transform="translate(1166,798)" d="m0 0 2 1-2 15-2-1-3 7-3-1 4-11 2-4z" fill="#D192AA"/>
<path transform="translate(1287,895)" d="m0 0 1 4-3 9-10 19-2 1 2-6 7-15z" fill="#A29B9E"/>
<path transform="translate(1164,785)" d="m0 0h1l1 9 2-4v8h-2l-2 11-2-1v-9z" fill="#E0654A"/>
<path transform="translate(541,268)" d="m0 0 10 1-1 11h-1l-1-6-9-1-1-4z" fill="#6A6C79"/>
<path transform="translate(1130,887)" d="m0 0 2 1-9 11-6 7h-2v2h-2l2-5 10-10 2-4z" fill="#888B97"/>
<path transform="translate(1139,876)" d="m0 0 1 2-7 13-2-1-1-2h-3z" fill="#9EA0A8"/>
<path transform="translate(731,778)" d="m0 0 4 1v2l4 2 3 3v2h2l6 7 1 3-4-2v-2l-4-2-5-5-7-8z" fill="#B9543E"/>
<path transform="translate(508,727)" d="m0 0h2l-3 10-3 6-2-2v-8z" fill="#D1AFA0"/>
<path transform="translate(728,462)" d="m0 0 4 1 10 11 5 7-1 3-2-2-6-8-2-4-3-1z" fill="#D183B0"/>
<path transform="translate(1282,547)" d="m0 0h2l5 19 1 7-3-3-4-14z" fill="#C9B3AB"/>
<path transform="translate(320,922)" d="m0 0 3 4 6 11 4 6 3 7-1 2-10-17-5-10z" fill="#894943"/>
<path transform="translate(912,836)" d="m0 0 6 2 9 7 4 4v2h-4l-1-4-4-1-1-3-9-6z" fill="#B35342"/>
<path transform="translate(1145,846)" d="m0 0 1 4-4 6-4 1-4 5h-2l-1 2 1-5 5-4 7-8z" fill="#E397B1"/>
<path transform="translate(556,675)" d="m0 0h5l-2 1v3l4 2-1 3-8-1-3-2h4v-5z" fill="#963E31"/>
<path transform="translate(1116,1143)" d="m0 0v3l-6 4-10 8-6 6-2-1 11-11z" fill="#CE5742"/>
<path transform="translate(927,843)" d="m0 0 14 12 9 6-2 1-3-1v-2l-5-2-8-6-6-7z" fill="#CC8BA0"/>
<path transform="translate(480,540)" d="m0 0 3 4 10 16 3 4-1 2-7-9-8-14z" fill="#8D3A2E"/>
<path transform="translate(482,1138)" d="m0 0 3 1-4 4 3 6-4-2-5-1-4 3 2-4z" fill="#AD4838"/>
<path transform="translate(1068,743)" d="m0 0 3 1-5 6-4-1-7-3v-2l5 1 4 1z" fill="#A13B30"/>
<path transform="translate(1081,834)" d="m0 0h2l-2 4-9 9-6 4-2-1 10-9 5-4z" fill="#DA83B6"/>
<path transform="translate(904,462)" d="m0 0h2l-1 3-6 5-4-1 2-6z" fill="#DA7CB5"/>
<path transform="translate(1099,924)" d="m0 0 5 1-4 5-4 2-5 3v-3l7-6z" fill="#898C98"/>
<path transform="translate(1212,236)" d="m0 0 2 1-7 8-6 2 2-4 6-6z" fill="#D673BF"/>
<path transform="translate(677,837)" d="m0 0 2 1-9 6-9 5-2-1 6-5 2-2v2z" fill="#EDA6A3"/>
<path transform="translate(1164,727)" d="m0 0h1l2 20-1 4-9 1 4-2h3z" fill="#B44F3B"/>
<path transform="translate(1083,386)" d="m0 0m-4 1 3 1v3l-11 5v-2l3-2-1-2z" fill="#BA6EA5"/>
<path transform="translate(1055,756)" d="m0 0 2 3 1 6 5 1v1h-5l-1 11h-1l-1-12z" fill="#C3533E"/>
<path transform="translate(1185,1265)" d="m0 0 2 4 5 14-1 3-5-9z" fill="#8E423C"/>
<path transform="translate(1245,443)" d="m0 0 4 2 4 9-2 3-3-4-2-6z" fill="#AAA0A1"/>
<path transform="translate(518,843)" d="m0 0 4 2 5 4 7 5-1 3-11-9z" fill="#EFAB9C"/>
<path transform="translate(716,820)" d="m0 0 2 4-15 2-1-2 7-2h7z" fill="#E49DA8"/>
<path transform="translate(711,765)" d="m0 0 5 1 7 4 7 6h-3l-9-6-7-4z" fill="#B9543E"/>
<path transform="translate(537,503)" d="m0 0 8 2v2l5 2-4 1-9-3v-3z" fill="#8B8E9B"/>
<path transform="translate(719,1395)" d="m0 0v3l-9 10-6 5 2-4 7-7z" fill="#AD4538"/>
<path transform="translate(703,755)" d="m0 0 5 5 3 5-2 3-6-9z" fill="#A84737"/>
<path transform="translate(980,376)" d="m0 0 4 1-3 3v1l-7 2-4 2 2-4z" fill="#D47AB3"/>
<path transform="translate(875,822)" d="m0 0h8l8 2v2l-15-1-2 1z" fill="#E595AD"/>
<path transform="translate(1023,345)" d="m0 0 4 1-5 6-1-2-7 5 2-4z" fill="#C77AAE"/>
<path transform="translate(1083,939)" d="m0 0 6 2-5 5-7 5 2-4 4-4h2z" fill="#818490"/>
<path transform="translate(1245,195)" d="m0 0 1 4-2 5-6 2 2-5z" fill="#AF81A2"/>
<path transform="translate(429,820)" d="m0 0 2 2 3 10-1 4-4-8z" fill="#F6F5F4"/>
<path transform="translate(1169,783)" d="m0 0h1l-1 14-2-3-2 1v-6l3-3z" fill="#A84A38"/>
<path transform="translate(943,749)" d="m0 0h1l-1 7-2 11h-1l-1-9z" fill="#A24736"/>
<path transform="translate(553,409)" d="m0 0 12 4v2l-9-2-6-2z" fill="#C982AC"/>
<path transform="translate(1287,895)" d="m0 0 1 4-3 9-4 2 4-11z" fill="#B5A19C"/>
<path transform="translate(555,867)" d="m0 0 9 2 11 3v1h-10v-2l-10-3z" fill="#D17892"/>
<path transform="translate(1169,755)" d="m0 0h2l-2 9h-1l-1 5h-1v-11z" fill="#F57353"/>
<path transform="translate(1280,538)" d="m0 0h2l4 9v6l-2-2-4-11z" fill="#333442"/>
<path transform="translate(1162,330)" d="m0 0 2 1-1 4-2 2h-5l3-5z" fill="#C570B2"/>
<path transform="translate(773,909)" d="m0 0 3 1 5 9v3h-2z" fill="#FBA06F"/>
<path transform="translate(1046,610)" d="m0 0 2 1-5 5-7 6v-3z" fill="#A84B38"/>
<path transform="translate(938,444)" d="m0 0h4v2l-9 4h-2l1-3z" fill="#D27BB1"/>
<path transform="translate(549,334)" d="m0 0 1 2 3 1-2 2-3 1-3-1v-4z" fill="#E27FB8"/>
<path transform="translate(940,857)" d="m0 0 5 2v2l4 1 1 2-5-1-6-3z" fill="#DE5D47"/>
<path transform="translate(728,462)" d="m0 0 4 1 6 7-2 1-5-5z" fill="#BF85A5"/>
<path transform="translate(1106,374)" d="m0 0 3 1-10 6-3 1 2-5 4-1z" fill="#AB709E"/>
<path transform="translate(440,1062)" d="m0 0 5 1 7 5v2l-5-2-7-5z" fill="#8F3F37"/>
<path transform="translate(873,832)" d="m0 0 5 2-2 4-4-1-1-3h2z" fill="#DB5A45"/>
<path transform="translate(1181,258)" d="m0 0 3 1-1 5-4 2v-5z" fill="#D572BE"/>
</svg>
